<svg width="599" height="72" viewBox="0 0 599 72" fill="none" xmlns="http://www.w3.org/2000/svg">
<g filter="url(#filter0_d_126_57)">
<path d="M7.37739 14.5278C3.99919 7.87533 8.83255 0 16.2936 0H584.144C591.241 0 596.08 7.18806 593.408 13.7638L575.533 57.7638C574.002 61.534 570.338 64 566.269 64H38.6374C34.8721 64 31.426 61.885 29.7211 58.5278L7.37739 14.5278Z" fill="#940000"/>
<path d="M8.71483 13.8486C5.84335 8.19403 9.95172 1.5 16.2936 1.5H584.144C590.177 1.5 594.289 7.60984 592.019 13.1992L574.144 57.1992C572.842 60.4039 569.728 62.5 566.269 62.5H38.6374C35.4369 62.5 32.5077 60.7022 31.0586 57.8486L8.71483 13.8486Z" stroke="white" stroke-width="3"/>
</g>
<path d="M215.921 42H210.977L218.509 20.1818H224.454L231.975 42H227.032L221.567 25.1676H221.396L215.921 42ZM215.612 33.424H227.288V37.0249H215.612V33.424ZM245.939 26.4567C245.854 25.5973 245.488 24.9297 244.842 24.4538C244.196 23.978 243.319 23.7401 242.211 23.7401C241.458 23.7401 240.822 23.8466 240.304 24.0597C239.785 24.2656 239.387 24.5533 239.11 24.9226C238.841 25.2919 238.706 25.7109 238.706 26.1797C238.691 26.5703 238.773 26.9112 238.951 27.2024C239.135 27.4936 239.387 27.7457 239.707 27.9588C240.027 28.1648 240.396 28.3459 240.815 28.5021C241.234 28.6513 241.681 28.7791 242.157 28.8857L244.118 29.3544C245.069 29.5675 245.943 29.8516 246.738 30.2067C247.534 30.5618 248.223 30.9986 248.805 31.517C249.387 32.0355 249.838 32.6463 250.158 33.3494C250.485 34.0526 250.652 34.8587 250.659 35.7678C250.652 37.103 250.311 38.2607 249.636 39.2408C248.968 40.2138 248.002 40.9702 246.738 41.5099C245.481 42.0426 243.965 42.3089 242.189 42.3089C240.428 42.3089 238.894 42.0391 237.587 41.4993C236.287 40.9595 235.272 40.1605 234.54 39.1023C233.816 38.0369 233.436 36.7195 233.4 35.1499H237.864C237.914 35.8814 238.123 36.4922 238.493 36.9822C238.869 37.4652 239.37 37.831 239.995 38.0795C240.627 38.321 241.341 38.4418 242.136 38.4418C242.917 38.4418 243.596 38.3281 244.171 38.1009C244.753 37.8736 245.204 37.5575 245.524 37.1527C245.843 36.7479 246.003 36.2827 246.003 35.7571C246.003 35.267 245.858 34.8551 245.566 34.5213C245.282 34.1875 244.863 33.9034 244.309 33.669C243.762 33.4347 243.091 33.2216 242.296 33.0298L239.92 32.4332C238.081 31.9858 236.628 31.2862 235.563 30.3345C234.498 29.3828 233.968 28.1009 233.975 26.4886C233.968 25.1676 234.32 24.0135 235.03 23.0263C235.748 22.0391 236.731 21.2685 237.981 20.7145C239.231 20.1605 240.652 19.8835 242.243 19.8835C243.862 19.8835 245.275 20.1605 246.483 20.7145C247.697 21.2685 248.642 22.0391 249.316 23.0263C249.991 24.0135 250.339 25.157 250.36 26.4567H245.939ZM272.541 26.4567C272.456 25.5973 272.09 24.9297 271.444 24.4538C270.797 23.978 269.92 23.7401 268.812 23.7401C268.059 23.7401 267.424 23.8466 266.905 24.0597C266.387 24.2656 265.989 24.5533 265.712 24.9226C265.442 25.2919 265.307 25.7109 265.307 26.1797C265.293 26.5703 265.375 26.9112 265.552 27.2024C265.737 27.4936 265.989 27.7457 266.309 27.9588C266.628 28.1648 266.998 28.3459 267.417 28.5021C267.836 28.6513 268.283 28.7791 268.759 28.8857L270.719 29.3544C271.671 29.5675 272.544 29.8516 273.34 30.2067C274.135 30.5618 274.824 30.9986 275.407 31.517C275.989 32.0355 276.44 32.6463 276.76 33.3494C277.086 34.0526 277.253 34.8587 277.26 35.7678C277.253 37.103 276.912 38.2607 276.238 39.2408C275.57 40.2138 274.604 40.9702 273.34 41.5099C272.083 42.0426 270.566 42.3089 268.791 42.3089C267.029 42.3089 265.495 42.0391 264.189 41.4993C262.889 40.9595 261.873 40.1605 261.142 39.1023C260.417 38.0369 260.037 36.7195 260.002 35.1499H264.466C264.515 35.8814 264.725 36.4922 265.094 36.9822C265.471 37.4652 265.971 37.831 266.596 38.0795C267.228 38.321 267.942 38.4418 268.738 38.4418C269.519 38.4418 270.197 38.3281 270.772 38.1009C271.355 37.8736 271.806 37.5575 272.125 37.1527C272.445 36.7479 272.605 36.2827 272.605 35.7571C272.605 35.267 272.459 34.8551 272.168 34.5213C271.884 34.1875 271.465 33.9034 270.911 33.669C270.364 33.4347 269.693 33.2216 268.897 33.0298L266.522 32.4332C264.682 31.9858 263.23 31.2862 262.164 30.3345C261.099 29.3828 260.57 28.1009 260.577 26.4886C260.57 25.1676 260.922 24.0135 261.632 23.0263C262.349 22.0391 263.333 21.2685 264.583 20.7145C265.833 20.1605 267.253 19.8835 268.844 19.8835C270.463 19.8835 271.877 20.1605 273.084 20.7145C274.299 21.2685 275.243 22.0391 275.918 23.0263C276.593 24.0135 276.941 25.157 276.962 26.4567H272.541ZM280.363 42V20.1818H295.065V23.9851H284.976V29.1839H294.308V32.9872H284.976V38.1967H295.107V42H280.363ZM298.732 42V20.1818H313.434V23.9851H303.345V29.1839H312.678V32.9872H303.345V38.1967H313.477V42H298.732ZM335.351 20.1818V42H331.366L321.874 28.2678H321.714V42H317.101V20.1818H321.15L330.567 33.9034H330.759V20.1818H335.351ZM366.155 31.0909C366.155 33.4702 365.704 35.4943 364.802 37.1634C363.907 38.8324 362.686 40.1072 361.137 40.9879C359.596 41.8615 357.863 42.2983 355.938 42.2983C353.999 42.2983 352.259 41.858 350.718 40.9773C349.177 40.0966 347.959 38.8217 347.064 37.1527C346.169 35.4837 345.722 33.4631 345.722 31.0909C345.722 28.7116 346.169 26.6875 347.064 25.0185C347.959 23.3494 349.177 22.0781 350.718 21.2045C352.259 20.3239 353.999 19.8835 355.938 19.8835C357.863 19.8835 359.596 20.3239 361.137 21.2045C362.686 22.0781 363.907 23.3494 364.802 25.0185C365.704 26.6875 366.155 28.7116 366.155 31.0909ZM361.478 31.0909C361.478 29.5497 361.247 28.25 360.786 27.1918C360.331 26.1335 359.688 25.331 358.857 24.7841C358.026 24.2372 357.053 23.9638 355.938 23.9638C354.823 23.9638 353.85 24.2372 353.019 24.7841C352.188 25.331 351.542 26.1335 351.08 27.1918C350.626 28.25 350.399 29.5497 350.399 31.0909C350.399 32.6321 350.626 33.9318 351.08 34.9901C351.542 36.0483 352.188 36.8509 353.019 37.3977C353.85 37.9446 354.823 38.218 355.938 38.218C357.053 38.218 358.026 37.9446 358.857 37.3977C359.688 36.8509 360.331 36.0483 360.786 34.9901C361.247 33.9318 361.478 32.6321 361.478 31.0909ZM387.821 20.1818V42H383.837L374.345 28.2678H374.185V42H369.572V20.1818H373.62L383.038 33.9034H383.23V20.1818H387.821Z" fill="white"/>
<defs>
<filter id="filter0_d_126_57" x="2.28052" y="0" width="595.873" height="72" filterUnits="userSpaceOnUse" color-interpolation-filters="sRGB">
<feFlood flood-opacity="0" result="BackgroundImageFix"/>
<feColorMatrix in="SourceAlpha" type="matrix" values="0 0 0 0 0 0 0 0 0 0 0 0 0 0 0 0 0 0 127 0" result="hardAlpha"/>
<feOffset dy="4"/>
<feGaussianBlur stdDeviation="2"/>
<feComposite in2="hardAlpha" operator="out"/>
<feColorMatrix type="matrix" values="0 0 0 0 0 0 0 0 0 0 0 0 0 0 0 0 0 0 0.25 0"/>
<feBlend mode="normal" in2="BackgroundImageFix" result="effect1_dropShadow_126_57"/>
<feBlend mode="normal" in="SourceGraphic" in2="effect1_dropShadow_126_57" result="shape"/>
</filter>
</defs>
</svg>
