<svg width="599" height="72" viewBox="0 0 599 72" fill="none" xmlns="http://www.w3.org/2000/svg">
<g filter="url(#filter0_d_126_61)">
<path d="M7.37739 14.5278C3.99919 7.87533 8.83255 0 16.2936 0H584.144C591.241 0 596.08 7.18806 593.408 13.7638L575.533 57.7638C574.002 61.534 570.338 64 566.269 64H38.6374C34.8721 64 31.426 61.885 29.7211 58.5278L7.37739 14.5278Z" fill="#940000"/>
<path d="M8.71483 13.8486C5.84335 8.19403 9.95172 1.5 16.2936 1.5H584.144C590.177 1.5 594.289 7.60984 592.019 13.1992L574.144 57.1992C572.842 60.4039 569.728 62.5 566.269 62.5H38.6374C35.4369 62.5 32.5077 60.7022 31.0586 57.8486L8.71483 13.8486Z" stroke="white" stroke-width="3"/>
</g>
<path d="M168.473 42L162.23 20.1818H167.269L170.88 35.3416H171.061L175.046 20.1818H179.36L183.334 35.3736H183.526L187.137 20.1818H192.176L185.934 42H181.438L177.283 27.7351H177.112L172.968 42H168.473ZM194.645 42V20.1818H199.258V29.1839H208.623V20.1818H213.225V42H208.623V32.9872H199.258V42H194.645ZM215.75 20.1818H220.917L225.892 29.5781H226.105L231.08 20.1818H236.247L228.289 34.2869V42H223.708V34.2869L215.75 20.1818ZM254.446 20.1818H259.005V35.3949C259.005 36.8011 258.689 38.0227 258.057 39.0597C257.432 40.0966 256.562 40.8956 255.447 41.4567C254.332 42.0178 253.036 42.2983 251.559 42.2983C250.245 42.2983 249.051 42.0675 247.979 41.6058C246.914 41.1371 246.068 40.4268 245.443 39.4751C244.818 38.5163 244.509 37.3125 244.517 35.8636H249.108C249.122 36.4389 249.24 36.9325 249.46 37.3445C249.687 37.7493 249.996 38.0618 250.387 38.282C250.784 38.495 251.253 38.6016 251.793 38.6016C252.361 38.6016 252.84 38.4808 253.231 38.2393C253.629 37.9908 253.931 37.6286 254.137 37.1527C254.343 36.6768 254.446 36.0909 254.446 35.3949V20.1818ZM282.869 31.0909C282.869 33.4702 282.418 35.4943 281.516 37.1634C280.621 38.8324 279.399 40.1072 277.851 40.9879C276.31 41.8615 274.577 42.2983 272.652 42.2983C270.713 42.2983 268.973 41.858 267.432 40.9773C265.891 40.0966 264.673 38.8217 263.778 37.1527C262.883 35.4837 262.436 33.4631 262.436 31.0909C262.436 28.7116 262.883 26.6875 263.778 25.0185C264.673 23.3494 265.891 22.0781 267.432 21.2045C268.973 20.3239 270.713 19.8835 272.652 19.8835C274.577 19.8835 276.31 20.3239 277.851 21.2045C279.399 22.0781 280.621 23.3494 281.516 25.0185C282.418 26.6875 282.869 28.7116 282.869 31.0909ZM278.192 31.0909C278.192 29.5497 277.961 28.25 277.5 27.1918C277.045 26.1335 276.402 25.331 275.571 24.7841C274.74 24.2372 273.767 23.9638 272.652 23.9638C271.537 23.9638 270.564 24.2372 269.733 24.7841C268.902 25.331 268.256 26.1335 267.794 27.1918C267.34 28.25 267.112 29.5497 267.112 31.0909C267.112 32.6321 267.34 33.9318 267.794 34.9901C268.256 36.0483 268.902 36.8509 269.733 37.3977C270.564 37.9446 271.537 38.218 272.652 38.218C273.767 38.218 274.74 37.9446 275.571 37.3977C276.402 36.8509 277.045 36.0483 277.5 34.9901C277.961 33.9318 278.192 32.6321 278.192 31.0909ZM290.899 20.1818V42H286.286V20.1818H290.899ZM312.943 20.1818V42H308.959L299.467 28.2678H299.307V42H294.694V20.1818H298.742L308.16 33.9034H308.352V20.1818H312.943ZM331.432 42H323.698V20.1818H331.496C333.691 20.1818 335.58 20.6186 337.164 21.4922C338.748 22.3587 339.966 23.6051 340.818 25.2315C341.677 26.858 342.107 28.804 342.107 31.0696C342.107 33.3423 341.677 35.2955 340.818 36.929C339.966 38.5625 338.741 39.8161 337.143 40.6896C335.552 41.5632 333.648 42 331.432 42ZM328.311 38.0476H331.241C332.604 38.0476 333.751 37.8061 334.682 37.3232C335.619 36.8331 336.322 36.0767 336.791 35.054C337.267 34.0241 337.505 32.696 337.505 31.0696C337.505 29.4574 337.267 28.1399 336.791 27.1172C336.322 26.0945 335.623 25.3416 334.692 24.8587C333.762 24.3757 332.615 24.1342 331.251 24.1342H328.311V38.0476ZM345.524 42V20.1818H354.132C355.78 20.1818 357.186 20.4766 358.351 21.0661C359.523 21.6484 360.414 22.4759 361.025 23.5483C361.643 24.6136 361.952 25.8672 361.952 27.3089C361.952 28.7578 361.639 30.0043 361.014 31.0483C360.389 32.0852 359.484 32.8807 358.298 33.4347C357.119 33.9886 355.691 34.2656 354.015 34.2656H348.252V30.5582H353.269C354.15 30.5582 354.881 30.4375 355.464 30.196C356.046 29.9545 356.479 29.5923 356.764 29.1094C357.055 28.6264 357.2 28.0263 357.2 27.3089C357.2 26.5845 357.055 25.9737 356.764 25.4766C356.479 24.9794 356.043 24.603 355.453 24.3473C354.871 24.0845 354.136 23.9531 353.248 23.9531H350.137V42H345.524ZM357.307 32.071L362.729 42H357.637L352.332 32.071H357.307ZM369.825 20.1818V42H365.212V20.1818H369.825ZM377.562 20.1818L382.835 36.7585H383.038L388.322 20.1818H393.435L385.914 42H379.969L372.437 20.1818H377.562ZM400.674 20.1818V42H396.061V20.1818H400.674ZM422.719 20.1818V42H418.734L409.242 28.2678H409.082V42H404.47V20.1818H408.518L417.935 33.9034H418.127V20.1818H422.719ZM430.248 20.1818V22.483C430.248 23.1364 430.12 23.804 429.865 24.4858C429.616 25.1605 429.282 25.7997 428.863 26.4034C428.444 27 427.986 27.5078 427.489 27.9268L425.486 26.7443C425.841 26.1832 426.154 25.5618 426.424 24.88C426.701 24.1982 426.839 23.4062 426.839 22.5043V20.1818H430.248ZM437.17 35.4588V35.0966C437.177 33.8537 437.287 32.8629 437.5 32.1243C437.721 31.3857 438.04 30.7891 438.459 30.3345C438.878 29.88 439.383 29.468 439.972 29.0987C440.412 28.8146 440.807 28.5199 441.155 28.2145C441.503 27.9091 441.78 27.5717 441.986 27.2024C442.191 26.826 442.294 26.407 442.294 25.9453C442.294 25.4553 442.177 25.0256 441.943 24.6562C441.709 24.2869 441.392 24.0028 440.995 23.804C440.604 23.6051 440.171 23.5057 439.695 23.5057C439.233 23.5057 438.797 23.6087 438.385 23.8146C437.973 24.0135 437.635 24.3118 437.373 24.7095C437.11 25.1001 436.968 25.5866 436.946 26.169H432.6C432.635 24.7486 432.976 23.5767 433.623 22.6534C434.269 21.723 435.125 21.0305 436.19 20.576C437.255 20.1143 438.431 19.8835 439.716 19.8835C441.13 19.8835 442.38 20.1179 443.466 20.5866C444.553 21.0483 445.405 21.7195 446.023 22.6001C446.641 23.4808 446.95 24.5426 446.95 25.7855C446.95 26.6165 446.812 27.3551 446.535 28.0014C446.265 28.6406 445.885 29.2088 445.395 29.706C444.905 30.196 444.326 30.6399 443.658 31.0376C443.097 31.3714 442.635 31.7195 442.273 32.0817C441.918 32.4439 441.652 32.8629 441.474 33.3388C441.304 33.8146 441.215 34.4006 441.208 35.0966V35.4588H437.17ZM439.28 42.277C438.569 42.277 437.962 42.0284 437.458 41.5312C436.961 41.027 436.716 40.4233 436.723 39.7202C436.716 39.0241 436.961 38.4276 437.458 37.9304C437.962 37.4332 438.569 37.1847 439.28 37.1847C439.954 37.1847 440.547 37.4332 441.059 37.9304C441.57 38.4276 441.829 39.0241 441.836 39.7202C441.829 40.1889 441.705 40.6186 441.464 41.0092C441.229 41.3928 440.92 41.7017 440.537 41.9361C440.153 42.1634 439.734 42.277 439.28 42.277Z" fill="white"/>
<defs>
<filter id="filter0_d_126_61" x="2.28052" y="0" width="595.873" height="72" filterUnits="userSpaceOnUse" color-interpolation-filters="sRGB">
<feFlood flood-opacity="0" result="BackgroundImageFix"/>
<feColorMatrix in="SourceAlpha" type="matrix" values="0 0 0 0 0 0 0 0 0 0 0 0 0 0 0 0 0 0 127 0" result="hardAlpha"/>
<feOffset dy="4"/>
<feGaussianBlur stdDeviation="2"/>
<feComposite in2="hardAlpha" operator="out"/>
<feColorMatrix type="matrix" values="0 0 0 0 0 0 0 0 0 0 0 0 0 0 0 0 0 0 0.25 0"/>
<feBlend mode="normal" in2="BackgroundImageFix" result="effect1_dropShadow_126_61"/>
<feBlend mode="normal" in="SourceGraphic" in2="effect1_dropShadow_126_61" result="shape"/>
</filter>
</defs>
</svg>
