<svg width="599" height="72" viewBox="0 0 599 72" fill="none" xmlns="http://www.w3.org/2000/svg">
<g filter="url(#filter0_d_126_56)">
<path d="M7.37739 14.5278C3.99919 7.87533 8.83255 0 16.2936 0H584.144C591.241 0 596.08 7.18806 593.408 13.7638L575.533 57.7638C574.002 61.534 570.338 64 566.269 64H38.6374C34.8721 64 31.426 61.885 29.7211 58.5278L7.37739 14.5278Z" fill="#940000"/>
<path d="M8.71483 13.8486C5.84335 8.19403 9.95172 1.5 16.2936 1.5H584.144C590.177 1.5 594.289 7.60984 592.019 13.1992L574.144 57.1992C572.842 60.4039 569.728 62.5 566.269 62.5H38.6374C35.4369 62.5 32.5077 60.7022 31.0586 57.8486L8.71483 13.8486Z" stroke="white" stroke-width="3"/>
</g>
<path d="M222.472 42V20.1818H231.08C232.735 20.1818 234.145 20.4979 235.31 21.13C236.475 21.755 237.362 22.625 237.973 23.7401C238.591 24.848 238.9 26.1264 238.9 27.5753C238.9 29.0241 238.588 30.3026 237.963 31.4105C237.338 32.5185 236.432 33.3814 235.246 33.9993C234.067 34.6172 232.639 34.9261 230.963 34.9261H225.477V31.2294H230.218C231.105 31.2294 231.837 31.0767 232.412 30.7713C232.994 30.4588 233.428 30.0291 233.712 29.4822C234.003 28.9283 234.149 28.2926 234.149 27.5753C234.149 26.8509 234.003 26.2187 233.712 25.679C233.428 25.1321 232.994 24.7095 232.412 24.4112C231.83 24.1058 231.091 23.9531 230.196 23.9531H227.085V42H222.472ZM243.137 42H238.194L245.726 20.1818H251.671L259.192 42H254.249L248.784 25.1676H248.613L243.137 42ZM242.828 33.424H254.505V37.0249H242.828V33.424ZM261.818 42V20.1818H270.426C272.074 20.1818 273.48 20.4766 274.645 21.0661C275.817 21.6484 276.708 22.4759 277.319 23.5483C277.937 24.6136 278.246 25.8672 278.246 27.3089C278.246 28.7578 277.933 30.0043 277.308 31.0483C276.683 32.0852 275.778 32.8807 274.592 33.4347C273.413 33.9886 271.985 34.2656 270.309 34.2656H264.545V30.5582H269.563C270.444 30.5582 271.175 30.4375 271.758 30.196C272.34 29.9545 272.773 29.5923 273.058 29.1094C273.349 28.6264 273.494 28.0263 273.494 27.3089C273.494 26.5845 273.349 25.9737 273.058 25.4766C272.773 24.9794 272.337 24.603 271.747 24.3473C271.165 24.0845 270.43 23.9531 269.542 23.9531H266.431V42H261.818ZM273.601 32.071L279.023 42H273.931L268.626 32.071H273.601ZM280.675 23.9851V20.1818H298.594V23.9851H291.914V42H287.354V23.9851H280.675ZM319.794 20.1818V42H315.81L306.317 28.2678H306.158V42H301.545V20.1818H305.593L315.011 33.9034H315.202V20.1818H319.794ZM323.605 42V20.1818H338.307V23.9851H328.218V29.1839H337.551V32.9872H328.218V38.1967H338.35V42H323.605ZM341.974 42V20.1818H350.582C352.23 20.1818 353.636 20.4766 354.801 21.0661C355.973 21.6484 356.864 22.4759 357.475 23.5483C358.093 24.6136 358.402 25.8672 358.402 27.3089C358.402 28.7578 358.089 30.0043 357.464 31.0483C356.839 32.0852 355.934 32.8807 354.748 33.4347C353.569 33.9886 352.141 34.2656 350.465 34.2656H344.702V30.5582H349.719C350.6 30.5582 351.332 30.4375 351.914 30.196C352.496 29.9545 352.93 29.5923 353.214 29.1094C353.505 28.6264 353.651 28.0263 353.651 27.3089C353.651 26.5845 353.505 25.9737 353.214 25.4766C352.93 24.9794 352.493 24.603 351.903 24.3473C351.321 24.0845 350.586 23.9531 349.698 23.9531H346.587V42H341.974ZM353.757 32.071L359.18 42H354.087L348.782 32.071H353.757ZM373.498 26.4567C373.413 25.5973 373.047 24.9297 372.401 24.4538C371.754 23.978 370.877 23.7401 369.769 23.7401C369.016 23.7401 368.381 23.8466 367.862 24.0597C367.344 24.2656 366.946 24.5533 366.669 24.9226C366.399 25.2919 366.264 25.7109 366.264 26.1797C366.25 26.5703 366.332 26.9112 366.509 27.2024C366.694 27.4936 366.946 27.7457 367.266 27.9588C367.585 28.1648 367.955 28.3459 368.374 28.5021C368.793 28.6513 369.24 28.7791 369.716 28.8857L371.676 29.3544C372.628 29.5675 373.501 29.8516 374.297 30.2067C375.092 30.5618 375.781 30.9986 376.364 31.517C376.946 32.0355 377.397 32.6463 377.717 33.3494C378.043 34.0526 378.21 34.8587 378.217 35.7678C378.21 37.103 377.869 38.2607 377.195 39.2408C376.527 40.2138 375.561 40.9702 374.297 41.5099C373.04 42.0426 371.523 42.3089 369.748 42.3089C367.987 42.3089 366.452 42.0391 365.146 41.4993C363.846 40.9595 362.83 40.1605 362.099 39.1023C361.374 38.0369 360.994 36.7195 360.959 35.1499H365.423C365.472 35.8814 365.682 36.4922 366.051 36.9822C366.428 37.4652 366.928 37.831 367.553 38.0795C368.185 38.321 368.899 38.4418 369.695 38.4418C370.476 38.4418 371.154 38.3281 371.729 38.1009C372.312 37.8736 372.763 37.5575 373.082 37.1527C373.402 36.7479 373.562 36.2827 373.562 35.7571C373.562 35.267 373.416 34.8551 373.125 34.5213C372.841 34.1875 372.422 33.9034 371.868 33.669C371.321 33.4347 370.65 33.2216 369.854 33.0298L367.479 32.4332C365.639 31.9858 364.187 31.2862 363.121 30.3345C362.056 29.3828 361.527 28.1009 361.534 26.4886C361.527 25.1676 361.879 24.0135 362.589 23.0263C363.306 22.0391 364.29 21.2685 365.54 20.7145C366.79 20.1605 368.21 19.8835 369.801 19.8835C371.42 19.8835 372.834 20.1605 374.041 20.7145C375.256 21.2685 376.2 22.0391 376.875 23.0263C377.55 24.0135 377.898 25.157 377.919 26.4567H373.498Z" fill="white"/>
<defs>
<filter id="filter0_d_126_56" x="2.28052" y="0" width="595.873" height="72" filterUnits="userSpaceOnUse" color-interpolation-filters="sRGB">
<feFlood flood-opacity="0" result="BackgroundImageFix"/>
<feColorMatrix in="SourceAlpha" type="matrix" values="0 0 0 0 0 0 0 0 0 0 0 0 0 0 0 0 0 0 127 0" result="hardAlpha"/>
<feOffset dy="4"/>
<feGaussianBlur stdDeviation="2"/>
<feComposite in2="hardAlpha" operator="out"/>
<feColorMatrix type="matrix" values="0 0 0 0 0 0 0 0 0 0 0 0 0 0 0 0 0 0 0.25 0"/>
<feBlend mode="normal" in2="BackgroundImageFix" result="effect1_dropShadow_126_56"/>
<feBlend mode="normal" in="SourceGraphic" in2="effect1_dropShadow_126_56" result="shape"/>
</filter>
</defs>
</svg>
