<svg width="599" height="72" viewBox="0 0 599 72" fill="none" xmlns="http://www.w3.org/2000/svg">
<g filter="url(#filter0_d_126_62)">
<path d="M7.37739 14.5278C3.99919 7.87533 8.83255 0 16.2936 0H584.144C591.241 0 596.08 7.18806 593.408 13.7638L575.533 57.7638C574.002 61.534 570.338 64 566.269 64H38.6374C34.8721 64 31.426 61.885 29.7211 58.5278L7.37739 14.5278Z" fill="#940000"/>
<path d="M8.71483 13.8486C5.84335 8.19403 9.95172 1.5 16.2936 1.5H584.144C590.177 1.5 594.289 7.60984 592.019 13.1992L574.144 57.1992C572.842 60.4039 569.728 62.5 566.269 62.5H38.6374C35.4369 62.5 32.5077 60.7022 31.0586 57.8486L8.71483 13.8486Z" stroke="white" stroke-width="3"/>
</g>
<path d="M144.738 20.1818H150.427L156.436 34.8409H156.691L162.7 20.1818H168.389V42H163.914V27.799H163.733L158.087 41.8935H155.04L149.394 27.7457H149.213V42H144.738V20.1818ZM176.802 20.1818V42H172.189V20.1818H176.802ZM198.847 20.1818V42H194.862L185.37 28.2678H185.21V42H180.597V20.1818H184.646L194.063 33.9034H194.255V20.1818H198.847ZM201.827 23.9851V20.1818H219.746V23.9851H213.066V42H208.507V23.9851H201.827ZM228.362 20.1818H233.529L238.504 29.5781H238.717L243.692 20.1818H248.859L240.901 34.2869V42H236.32V34.2869L228.362 20.1818ZM270.11 31.0909C270.11 33.4702 269.659 35.4943 268.757 37.1634C267.862 38.8324 266.641 40.1072 265.092 40.9879C263.551 41.8615 261.818 42.2983 259.893 42.2983C257.955 42.2983 256.214 41.858 254.673 40.9773C253.132 40.0966 251.914 38.8217 251.019 37.1527C250.124 35.4837 249.677 33.4631 249.677 31.0909C249.677 28.7116 250.124 26.6875 251.019 25.0185C251.914 23.3494 253.132 22.0781 254.673 21.2045C256.214 20.3239 257.955 19.8835 259.893 19.8835C261.818 19.8835 263.551 20.3239 265.092 21.2045C266.641 22.0781 267.862 23.3494 268.757 25.0185C269.659 26.6875 270.11 28.7116 270.11 31.0909ZM265.433 31.0909C265.433 29.5497 265.202 28.25 264.741 27.1918C264.286 26.1335 263.643 25.331 262.812 24.7841C261.982 24.2372 261.009 23.9638 259.893 23.9638C258.778 23.9638 257.805 24.2372 256.974 24.7841C256.143 25.331 255.497 26.1335 255.036 27.1918C254.581 28.25 254.354 29.5497 254.354 31.0909C254.354 32.6321 254.581 33.9318 255.036 34.9901C255.497 36.0483 256.143 36.8509 256.974 37.3977C257.805 37.9446 258.778 38.218 259.893 38.218C261.009 38.218 261.982 37.9446 262.812 37.3977C263.643 36.8509 264.286 36.0483 264.741 34.9901C265.202 33.9318 265.433 32.6321 265.433 31.0909ZM287.004 20.1818H291.617V34.3509C291.617 35.9418 291.237 37.3338 290.477 38.527C289.724 39.7202 288.669 40.6506 287.313 41.3182C285.956 41.9787 284.376 42.3089 282.572 42.3089C280.761 42.3089 279.177 41.9787 277.82 41.3182C276.464 40.6506 275.409 39.7202 274.656 38.527C273.904 37.3338 273.527 35.9418 273.527 34.3509V20.1818H278.14V33.9567C278.14 34.7876 278.321 35.5263 278.683 36.1726C279.053 36.8189 279.571 37.3267 280.239 37.696C280.906 38.0653 281.684 38.25 282.572 38.25C283.467 38.25 284.244 38.0653 284.905 37.696C285.573 37.3267 286.088 36.8189 286.45 36.1726C286.819 35.5263 287.004 34.7876 287.004 33.9567V20.1818ZM295.412 42V20.1818H304.02C305.668 20.1818 307.074 20.4766 308.239 21.0661C309.411 21.6484 310.302 22.4759 310.913 23.5483C311.531 24.6136 311.839 25.8672 311.839 27.3089C311.839 28.7578 311.527 30.0043 310.902 31.0483C310.277 32.0852 309.371 32.8807 308.185 33.4347C307.006 33.9886 305.579 34.2656 303.903 34.2656H298.139V30.5582H303.157C304.038 30.5582 304.769 30.4375 305.352 30.196C305.934 29.9545 306.367 29.5923 306.651 29.1094C306.942 28.6264 307.088 28.0263 307.088 27.3089C307.088 26.5845 306.942 25.9737 306.651 25.4766C306.367 24.9794 305.93 24.603 305.341 24.3473C304.759 24.0845 304.023 23.9531 303.136 23.9531H300.025V42H295.412ZM307.195 32.071L312.617 42H307.525L302.219 32.071H307.195ZM341.294 27.8203H336.627C336.542 27.2166 336.368 26.6804 336.105 26.2116C335.843 25.7358 335.505 25.331 335.093 24.9972C334.681 24.6634 334.205 24.4077 333.666 24.2301C333.133 24.0526 332.554 23.9638 331.929 23.9638C330.8 23.9638 329.816 24.2443 328.978 24.8054C328.14 25.3594 327.49 26.169 327.029 27.2344C326.567 28.2926 326.336 29.5781 326.336 31.0909C326.336 32.6463 326.567 33.9531 327.029 35.0114C327.497 36.0696 328.151 36.8686 328.989 37.4084C329.827 37.9482 330.796 38.218 331.897 38.218C332.515 38.218 333.087 38.1364 333.612 37.973C334.145 37.8097 334.617 37.5717 335.029 37.2592C335.441 36.9396 335.782 36.5526 336.052 36.098C336.329 35.6435 336.521 35.125 336.627 34.5426L341.294 34.5639C341.173 35.5653 340.871 36.5312 340.388 37.4616C339.912 38.3849 339.269 39.2124 338.46 39.9439C337.657 40.6683 336.698 41.2436 335.583 41.6697C334.475 42.0888 333.222 42.2983 331.823 42.2983C329.877 42.2983 328.137 41.858 326.602 40.9773C325.075 40.0966 323.868 38.8217 322.98 37.1527C322.1 35.4837 321.659 33.4631 321.659 31.0909C321.659 28.7116 322.107 26.6875 323.002 25.0185C323.896 23.3494 325.111 22.0781 326.645 21.2045C328.179 20.3239 329.905 19.8835 331.823 19.8835C333.087 19.8835 334.259 20.0611 335.338 20.4162C336.425 20.7713 337.387 21.2898 338.225 21.9716C339.063 22.6463 339.745 23.4737 340.271 24.4538C340.803 25.4339 341.144 26.5561 341.294 27.8203ZM347.952 42H343.009L350.541 20.1818H356.485L364.007 42H359.063L353.598 25.1676H353.428L347.952 42ZM347.643 33.424H359.319V37.0249H347.643V33.424ZM366.633 42V20.1818H375.241C376.888 20.1818 378.295 20.4766 379.459 21.0661C380.631 21.6484 381.523 22.4759 382.133 23.5483C382.751 24.6136 383.06 25.8672 383.06 27.3089C383.06 28.7578 382.748 30.0043 382.123 31.0483C381.498 32.0852 380.592 32.8807 379.406 33.4347C378.227 33.9886 376.8 34.2656 375.123 34.2656H369.36V30.5582H374.378C375.258 30.5582 375.99 30.4375 376.572 30.196C377.155 29.9545 377.588 29.5923 377.872 29.1094C378.163 28.6264 378.309 28.0263 378.309 27.3089C378.309 26.5845 378.163 25.9737 377.872 25.4766C377.588 24.9794 377.151 24.603 376.562 24.3473C375.979 24.0845 375.244 23.9531 374.356 23.9531H371.246V42H366.633ZM378.415 32.071L383.838 42H378.746L373.44 32.071H378.415ZM411.513 20.1818V42H407.528L398.036 28.2678H397.876V42H393.263V20.1818H397.312L406.729 33.9034H406.921V20.1818H411.513ZM435.374 31.0909C435.374 33.4702 434.923 35.4943 434.021 37.1634C433.126 38.8324 431.904 40.1072 430.356 40.9879C428.815 41.8615 427.082 42.2983 425.157 42.2983C423.218 42.2983 421.478 41.858 419.937 40.9773C418.396 40.0966 417.178 38.8217 416.283 37.1527C415.388 35.4837 414.941 33.4631 414.941 31.0909C414.941 28.7116 415.388 26.6875 416.283 25.0185C417.178 23.3494 418.396 22.0781 419.937 21.2045C421.478 20.3239 423.218 19.8835 425.157 19.8835C427.082 19.8835 428.815 20.3239 430.356 21.2045C431.904 22.0781 433.126 23.3494 434.021 25.0185C434.923 26.6875 435.374 28.7116 435.374 31.0909ZM430.697 31.0909C430.697 29.5497 430.466 28.25 430.004 27.1918C429.55 26.1335 428.907 25.331 428.076 24.7841C427.245 24.2372 426.272 23.9638 425.157 23.9638C424.042 23.9638 423.069 24.2372 422.238 24.7841C421.407 25.331 420.761 26.1335 420.299 27.1918C419.845 28.25 419.617 29.5497 419.617 31.0909C419.617 32.6321 419.845 33.9318 420.299 34.9901C420.761 36.0483 421.407 36.8509 422.238 37.3977C423.069 37.9446 424.042 38.218 425.157 38.218C426.272 38.218 427.245 37.9446 428.076 37.3977C428.907 36.8509 429.55 36.0483 430.004 34.9901C430.466 33.9318 430.697 32.6321 430.697 31.0909ZM442.882 42L436.639 20.1818H441.678L445.289 35.3416H445.471L449.455 20.1818H453.77L457.743 35.3736H457.935L461.547 20.1818H466.586L460.343 42H455.847L451.692 27.7351H451.522L447.377 42H442.882Z" fill="white"/>
<defs>
<filter id="filter0_d_126_62" x="2.28052" y="0" width="595.873" height="72" filterUnits="userSpaceOnUse" color-interpolation-filters="sRGB">
<feFlood flood-opacity="0" result="BackgroundImageFix"/>
<feColorMatrix in="SourceAlpha" type="matrix" values="0 0 0 0 0 0 0 0 0 0 0 0 0 0 0 0 0 0 127 0" result="hardAlpha"/>
<feOffset dy="4"/>
<feGaussianBlur stdDeviation="2"/>
<feComposite in2="hardAlpha" operator="out"/>
<feColorMatrix type="matrix" values="0 0 0 0 0 0 0 0 0 0 0 0 0 0 0 0 0 0 0.25 0"/>
<feBlend mode="normal" in2="BackgroundImageFix" result="effect1_dropShadow_126_62"/>
<feBlend mode="normal" in="SourceGraphic" in2="effect1_dropShadow_126_62" result="shape"/>
</filter>
</defs>
</svg>
