<svg width="599" height="72" viewBox="0 0 599 72" fill="none" xmlns="http://www.w3.org/2000/svg">
<g filter="url(#filter0_d_126_58)">
<path d="M7.37739 14.5278C3.99919 7.87533 8.83255 0 16.2936 0H584.144C591.241 0 596.08 7.18806 593.408 13.7638L575.533 57.7638C574.002 61.534 570.338 64 566.269 64H38.6374C34.8721 64 31.426 61.885 29.7211 58.5278L7.37739 14.5278Z" fill="#940000"/>
<path d="M8.71483 13.8486C5.84335 8.19403 9.95172 1.5 16.2936 1.5H584.144C590.177 1.5 594.289 7.60984 592.019 13.1992L574.144 57.1992C572.842 60.4039 569.728 62.5 566.269 62.5H38.6374C35.4369 62.5 32.5077 60.7022 31.0586 57.8486L8.71483 13.8486Z" stroke="white" stroke-width="3"/>
</g>
<path d="M188.933 20.1818H193.493V35.3949C193.493 36.8011 193.176 38.0227 192.544 39.0597C191.919 40.0966 191.049 40.8956 189.934 41.4567C188.819 42.0178 187.523 42.2983 186.046 42.2983C184.732 42.2983 183.539 42.0675 182.466 41.6058C181.401 41.1371 180.556 40.4268 179.931 39.4751C179.306 38.5163 178.997 37.3125 179.004 35.8636H183.596C183.61 36.4389 183.727 36.9325 183.947 37.3445C184.174 37.7493 184.483 38.0618 184.874 38.282C185.272 38.495 185.74 38.6016 186.28 38.6016C186.848 38.6016 187.328 38.4808 187.718 38.2393C188.116 37.9908 188.418 37.6286 188.624 37.1527C188.83 36.6768 188.933 36.0909 188.933 35.3949V20.1818ZM217.356 31.0909C217.356 33.4702 216.905 35.4943 216.003 37.1634C215.108 38.8324 213.887 40.1072 212.338 40.9879C210.797 41.8615 209.064 42.2983 207.14 42.2983C205.201 42.2983 203.461 41.858 201.919 40.9773C200.378 40.0966 199.16 38.8217 198.265 37.1527C197.37 35.4837 196.923 33.4631 196.923 31.0909C196.923 28.7116 197.37 26.6875 198.265 25.0185C199.16 23.3494 200.378 22.0781 201.919 21.2045C203.461 20.3239 205.201 19.8835 207.14 19.8835C209.064 19.8835 210.797 20.3239 212.338 21.2045C213.887 22.0781 215.108 23.3494 216.003 25.0185C216.905 26.6875 217.356 28.7116 217.356 31.0909ZM212.679 31.0909C212.679 29.5497 212.449 28.25 211.987 27.1918C211.532 26.1335 210.89 25.331 210.059 24.7841C209.228 24.2372 208.255 23.9638 207.14 23.9638C206.025 23.9638 205.051 24.2372 204.221 24.7841C203.39 25.331 202.743 26.1335 202.282 27.1918C201.827 28.25 201.6 29.5497 201.6 31.0909C201.6 32.6321 201.827 33.9318 202.282 34.9901C202.743 36.0483 203.39 36.8509 204.221 37.3977C205.051 37.9446 206.025 38.218 207.14 38.218C208.255 38.218 209.228 37.9446 210.059 37.3977C210.89 36.8509 211.532 36.0483 211.987 34.9901C212.449 33.9318 212.679 32.6321 212.679 31.0909ZM225.386 20.1818V42H220.773V20.1818H225.386ZM247.431 20.1818V42H243.446L233.954 28.2678H233.794V42H229.181V20.1818H233.23L242.647 33.9034H242.839V20.1818H247.431ZM263.097 42L256.854 20.1818H261.893L265.504 35.3416H265.685L269.67 20.1818H273.984L277.958 35.3736H278.15L281.761 20.1818H286.8L280.558 42H276.062L271.907 27.7351H271.737L267.592 42H263.097ZM289.269 42V20.1818H293.882V29.1839H303.247V20.1818H307.849V42H303.247V32.9872H293.882V42H289.269ZM316.265 20.1818V42H311.652V20.1818H316.265ZM319.229 23.9851V20.1818H337.148V23.9851H330.469V42H325.909V23.9851H319.229ZM340.099 42V20.1818H354.801V23.9851H344.712V29.1839H354.045V32.9872H344.712V38.1967H354.844V42H340.099ZM358.469 42V20.1818H363.081V38.1967H372.435V42H358.469ZM380.103 20.1818V42H375.49V20.1818H380.103ZM395.734 26.4567C395.649 25.5973 395.283 24.9297 394.637 24.4538C393.991 23.978 393.113 23.7401 392.006 23.7401C391.253 23.7401 390.617 23.8466 390.099 24.0597C389.58 24.2656 389.182 24.5533 388.905 24.9226C388.635 25.2919 388.501 25.7109 388.501 26.1797C388.486 26.5703 388.568 26.9112 388.746 27.2024C388.93 27.4936 389.182 27.7457 389.502 27.9588C389.822 28.1648 390.191 28.3459 390.61 28.5021C391.029 28.6513 391.476 28.7791 391.952 28.8857L393.912 29.3544C394.864 29.5675 395.738 29.8516 396.533 30.2067C397.329 30.5618 398.018 30.9986 398.6 31.517C399.182 32.0355 399.633 32.6463 399.953 33.3494C400.28 34.0526 400.447 34.8587 400.454 35.7678C400.447 37.103 400.106 38.2607 399.431 39.2408C398.763 40.2138 397.797 40.9702 396.533 41.5099C395.276 42.0426 393.76 42.3089 391.984 42.3089C390.223 42.3089 388.689 42.0391 387.382 41.4993C386.082 40.9595 385.067 40.1605 384.335 39.1023C383.611 38.0369 383.231 36.7195 383.195 35.1499H387.659C387.709 35.8814 387.918 36.4922 388.287 36.9822C388.664 37.4652 389.165 37.831 389.79 38.0795C390.422 38.321 391.135 38.4418 391.931 38.4418C392.712 38.4418 393.39 38.3281 393.966 38.1009C394.548 37.8736 394.999 37.5575 395.319 37.1527C395.638 36.7479 395.798 36.2827 395.798 35.7571C395.798 35.267 395.653 34.8551 395.361 34.5213C395.077 34.1875 394.658 33.9034 394.104 33.669C393.557 33.4347 392.886 33.2216 392.091 33.0298L389.715 32.4332C387.876 31.9858 386.423 31.2862 385.358 30.3345C384.292 29.3828 383.763 28.1009 383.77 26.4886C383.763 25.1676 384.115 24.0135 384.825 23.0263C385.542 22.0391 386.526 21.2685 387.776 20.7145C389.026 20.1605 390.447 19.8835 392.037 19.8835C393.657 19.8835 395.07 20.1605 396.278 20.7145C397.492 21.2685 398.437 22.0391 399.111 23.0263C399.786 24.0135 400.134 25.157 400.155 26.4567H395.734ZM402.725 23.9851V20.1818H420.645V23.9851H413.965V42H409.405V23.9851H402.725Z" fill="white"/>
<defs>
<filter id="filter0_d_126_58" x="2.28052" y="0" width="595.873" height="72" filterUnits="userSpaceOnUse" color-interpolation-filters="sRGB">
<feFlood flood-opacity="0" result="BackgroundImageFix"/>
<feColorMatrix in="SourceAlpha" type="matrix" values="0 0 0 0 0 0 0 0 0 0 0 0 0 0 0 0 0 0 127 0" result="hardAlpha"/>
<feOffset dy="4"/>
<feGaussianBlur stdDeviation="2"/>
<feComposite in2="hardAlpha" operator="out"/>
<feColorMatrix type="matrix" values="0 0 0 0 0 0 0 0 0 0 0 0 0 0 0 0 0 0 0.25 0"/>
<feBlend mode="normal" in2="BackgroundImageFix" result="effect1_dropShadow_126_58"/>
<feBlend mode="normal" in="SourceGraphic" in2="effect1_dropShadow_126_58" result="shape"/>
</filter>
</defs>
</svg>
