<svg width="599" height="72" viewBox="0 0 599 72" fill="none" xmlns="http://www.w3.org/2000/svg">
<g filter="url(#filter0_d_126_59)">
<path d="M7.37739 14.5278C3.99919 7.87533 8.83255 0 16.2936 0H584.144C591.241 0 596.08 7.18806 593.408 13.7638L575.533 57.7638C574.002 61.534 570.338 64 566.269 64H38.6374C34.8721 64 31.426 61.885 29.7211 58.5278L7.37739 14.5278Z" fill="#940000"/>
<path d="M8.71483 13.8486C5.84335 8.19403 9.95172 1.5 16.2936 1.5H584.144C590.177 1.5 594.289 7.60984 592.019 13.1992L574.144 57.1992C572.842 60.4039 569.728 62.5 566.269 62.5H38.6374C35.4369 62.5 32.5077 60.7022 31.0586 57.8486L8.71483 13.8486Z" stroke="white" stroke-width="3"/>
</g>
<path d="M228.048 23.9851V20.1818H245.967V23.9851H239.287V42H234.727V23.9851H228.048ZM248.918 42V20.1818H253.531V29.1839H262.895V20.1818H267.497V42H262.895V32.9872H253.531V42H248.918ZM271.301 42V20.1818H286.002V23.9851H275.914V29.1839H285.246V32.9872H275.914V38.1967H286.045V42H271.301ZM295.782 23.9851V20.1818H313.701V23.9851H307.021V42H302.462V23.9851H295.782ZM316.652 42V20.1818H331.354V23.9851H321.265V29.1839H330.597V32.9872H321.265V38.1967H331.396V42H316.652ZM338.782 42H333.839L341.371 20.1818H347.315L354.837 42H349.893L344.428 25.1676H344.258L338.782 42ZM338.473 33.424H350.149V37.0249H338.473V33.424ZM357.463 20.1818H363.152L369.16 34.8409H369.416L375.424 20.1818H381.113V42H376.639V27.799H376.458L370.811 41.8935H367.765L362.118 27.7457H361.937V42H357.463V20.1818Z" fill="white"/>
<defs>
<filter id="filter0_d_126_59" x="2.28052" y="0" width="595.873" height="72" filterUnits="userSpaceOnUse" color-interpolation-filters="sRGB">
<feFlood flood-opacity="0" result="BackgroundImageFix"/>
<feColorMatrix in="SourceAlpha" type="matrix" values="0 0 0 0 0 0 0 0 0 0 0 0 0 0 0 0 0 0 127 0" result="hardAlpha"/>
<feOffset dy="4"/>
<feGaussianBlur stdDeviation="2"/>
<feComposite in2="hardAlpha" operator="out"/>
<feColorMatrix type="matrix" values="0 0 0 0 0 0 0 0 0 0 0 0 0 0 0 0 0 0 0.25 0"/>
<feBlend mode="normal" in2="BackgroundImageFix" result="effect1_dropShadow_126_59"/>
<feBlend mode="normal" in="SourceGraphic" in2="effect1_dropShadow_126_59" result="shape"/>
</filter>
</defs>
</svg>
