<svg width="599" height="73" viewBox="0 0 599 73" fill="none" xmlns="http://www.w3.org/2000/svg">
<g filter="url(#filter0_d_126_60)">
<path d="M7.37739 14.5561C3.99919 7.90365 8.83255 0.0283203 16.2936 0.0283203H584.144C591.241 0.0283203 596.08 7.21638 593.408 13.7921L575.533 57.7921C574.002 61.5623 570.338 64.0283 566.269 64.0283H38.6374C34.8721 64.0283 31.426 61.9133 29.7211 58.5561L7.37739 14.5561Z" fill="#940000"/>
<path d="M8.71483 13.8769C5.84335 8.22235 9.95172 1.52832 16.2936 1.52832H584.144C590.177 1.52832 594.289 7.63816 592.019 13.2275L574.144 57.2275C572.842 60.4322 569.728 62.5283 566.269 62.5283H38.6374C35.4369 62.5283 32.5077 60.7306 31.0586 57.8769L8.71483 13.8769Z" stroke="white" stroke-width="3"/>
</g>
<path d="M229.142 42.0283V20.2101H237.75C239.398 20.2101 240.804 20.5049 241.969 21.0944C243.141 21.6768 244.032 22.5042 244.643 23.5766C245.261 24.642 245.57 25.8955 245.57 27.3373C245.57 28.7861 245.257 30.0326 244.632 31.0766C244.007 32.1135 243.102 32.909 241.916 33.463C240.737 34.017 239.309 34.2939 237.633 34.2939H231.87V30.5866H236.887C237.768 30.5866 238.5 30.4658 239.082 30.2243C239.664 29.9829 240.098 29.6206 240.382 29.1377C240.673 28.6547 240.819 28.0546 240.819 27.3373C240.819 26.6128 240.673 26.002 240.382 25.5049C240.098 25.0077 239.661 24.6313 239.071 24.3756C238.489 24.1128 237.754 23.9814 236.866 23.9814H233.755V42.0283H229.142ZM240.925 32.0993L246.348 42.0283H241.255L235.95 32.0993H240.925ZM268.88 31.1192C268.88 33.4985 268.429 35.5226 267.527 37.1917C266.632 38.8607 265.41 40.1356 263.862 41.0162C262.321 41.8898 260.588 42.3266 258.663 42.3266C256.724 42.3266 254.984 41.8863 253.443 41.0056C251.902 40.1249 250.684 38.8501 249.789 37.181C248.894 35.512 248.446 33.4914 248.446 31.1192C248.446 28.74 248.894 26.7158 249.789 25.0468C250.684 23.3778 251.902 22.1064 253.443 21.2329C254.984 20.3522 256.724 19.9118 258.663 19.9118C260.588 19.9118 262.321 20.3522 263.862 21.2329C265.41 22.1064 266.632 23.3778 267.527 25.0468C268.429 26.7158 268.88 28.74 268.88 31.1192ZM264.203 31.1192C264.203 29.578 263.972 28.2783 263.51 27.2201C263.056 26.1618 262.413 25.3593 261.582 24.8124C260.751 24.2655 259.778 23.9921 258.663 23.9921C257.548 23.9921 256.575 24.2655 255.744 24.8124C254.913 25.3593 254.267 26.1618 253.805 27.2201C253.35 28.2783 253.123 29.578 253.123 31.1192C253.123 32.6604 253.35 33.9601 253.805 35.0184C254.267 36.0766 254.913 36.8792 255.744 37.426C256.575 37.9729 257.548 38.2464 258.663 38.2464C259.778 38.2464 260.751 37.9729 261.582 37.426C262.413 36.8792 263.056 36.0766 263.51 35.0184C263.972 33.9601 264.203 32.6604 264.203 31.1192ZM274.827 42.0283H269.884L277.416 20.2101H283.36L290.882 42.0283H285.938L280.473 25.1959H280.303L274.827 42.0283ZM274.518 33.4523H286.194V37.0532H274.518V33.4523ZM301.242 42.0283H293.508V20.2101H301.306C303.501 20.2101 305.39 20.6469 306.974 21.5205C308.557 22.387 309.775 23.6334 310.628 25.2599C311.487 26.8863 311.917 28.8323 311.917 31.0979C311.917 33.3706 311.487 35.3238 310.628 36.9573C309.775 38.5908 308.55 39.8444 306.952 40.718C305.361 41.5915 303.458 42.0283 301.242 42.0283ZM298.121 38.0759H301.05C302.414 38.0759 303.561 37.8344 304.491 37.3515C305.429 36.8614 306.132 36.105 306.601 35.0823C307.077 34.0525 307.314 32.7243 307.314 31.0979C307.314 29.4857 307.077 28.1682 306.601 27.1455C306.132 26.1228 305.432 25.3699 304.502 24.887C303.572 24.404 302.425 24.1626 301.061 24.1626H298.121V38.0759ZM315.334 20.2101H321.023L327.031 34.8692H327.287L333.295 20.2101H338.984V42.0283H334.51V27.8273H334.329L328.683 41.9218H325.636L319.989 27.7741H319.808V42.0283H315.334V20.2101ZM346.546 42.0283H341.602L349.134 20.2101H355.079L362.6 42.0283H357.657L352.192 25.1959H352.021L346.546 42.0283ZM346.237 33.4523H357.913V37.0532H346.237V33.4523ZM365.226 42.0283V20.2101H373.834C375.489 20.2101 376.899 20.5262 378.064 21.1583C379.229 21.7833 380.116 22.6533 380.727 23.7684C381.345 24.8763 381.654 26.1547 381.654 27.6036C381.654 29.0525 381.341 30.3309 380.716 31.4388C380.091 32.5468 379.186 33.4097 378 34.0276C376.821 34.6455 375.393 34.9545 373.717 34.9545H368.231V31.2577H372.971C373.859 31.2577 374.591 31.105 375.166 30.7996C375.748 30.4871 376.182 30.0574 376.466 29.5106C376.757 28.9566 376.903 28.3209 376.903 27.6036C376.903 26.8792 376.757 26.2471 376.466 25.7073C376.182 25.1604 375.748 24.7378 375.166 24.4395C374.584 24.1341 373.845 23.9814 372.95 23.9814H369.839V42.0283H365.226Z" fill="white"/>
<defs>
<filter id="filter0_d_126_60" x="2.28052" y="0.0283203" width="595.873" height="72" filterUnits="userSpaceOnUse" color-interpolation-filters="sRGB">
<feFlood flood-opacity="0" result="BackgroundImageFix"/>
<feColorMatrix in="SourceAlpha" type="matrix" values="0 0 0 0 0 0 0 0 0 0 0 0 0 0 0 0 0 0 127 0" result="hardAlpha"/>
<feOffset dy="4"/>
<feGaussianBlur stdDeviation="2"/>
<feComposite in2="hardAlpha" operator="out"/>
<feColorMatrix type="matrix" values="0 0 0 0 0 0 0 0 0 0 0 0 0 0 0 0 0 0 0.25 0"/>
<feBlend mode="normal" in2="BackgroundImageFix" result="effect1_dropShadow_126_60"/>
<feBlend mode="normal" in="SourceGraphic" in2="effect1_dropShadow_126_60" result="shape"/>
</filter>
</defs>
</svg>
