<svg width="100" height="82" viewBox="0 0 100 82" fill="none" xmlns="http://www.w3.org/2000/svg">
<rect x="0.5" y="0.5" width="99" height="81" rx="19.5" fill="white" fill-opacity="0.4" stroke="white"/>
<g clip-path="url(#clip0_132_137)">
<path d="M50.0229 45.3632L61.8497 33.5376C62.2358 33.1702 62.7483 32.9654 63.2812 32.9654C63.8141 32.9654 64.3267 33.1702 64.7128 33.5376C65.0924 33.9172 65.3057 34.4322 65.3057 34.9691C65.3057 35.506 65.0924 36.021 64.7128 36.4006L50.9022 50.2112C50.516 50.5783 50.0035 50.783 49.4707 50.783C48.9379 50.783 48.4254 50.5783 48.0392 50.2112L41.4833 43.6553C41.1036 43.2756 40.8903 42.7606 40.8903 42.2236C40.8903 41.6866 41.1036 41.1717 41.4833 40.792C41.863 40.4123 42.378 40.199 42.9149 40.199C43.4519 40.199 43.9669 40.4123 44.3466 40.792L48.9183 45.3634C49.0648 45.5098 49.2635 45.592 49.4706 45.592C49.6777 45.5919 49.8764 45.5096 50.0229 45.3632V45.3632ZM50.5006 61.6095C46.5233 61.6095 42.6353 60.4301 39.3282 58.2205C36.0212 56.0109 33.4437 52.8702 31.9216 49.1957C30.3995 45.5211 30.0012 41.4778 30.7771 37.5769C31.5531 33.676 33.4683 30.0928 36.2806 27.2804C39.093 24.468 42.6762 22.5528 46.577 21.7768C50.4779 21.0009 54.5213 21.3991 58.1958 22.9211C61.8704 24.4432 65.0111 27.0206 67.2208 30.3276C69.4304 33.6346 70.6098 37.5226 70.6098 41.4999C70.6038 46.8315 68.4832 51.943 64.7132 55.7129C60.9431 59.4829 55.8316 61.6035 50.5001 61.6095H50.5006ZM60.7447 32.4318L49.4703 43.7054L45.4511 39.6862C45.1188 39.3524 44.7236 39.0878 44.2883 38.9077C43.8531 38.7276 43.3865 38.6355 42.9154 38.6369C42.2061 38.6365 41.5125 38.8466 40.9226 39.2405C40.3327 39.6344 39.8729 40.1945 39.6014 40.8498C39.3299 41.5051 39.2588 42.2263 39.3973 42.922C39.5357 43.6177 39.8775 44.2567 40.3792 44.7581L46.9336 51.3131C47.2666 51.6464 47.6619 51.9108 48.0971 52.0912C48.5323 52.2716 48.9988 52.3645 49.4698 52.3645C49.9409 52.3645 50.4074 52.2716 50.8426 52.0912C51.2778 51.9108 51.6731 51.6464 52.0061 51.3131L65.8166 37.5025C66.1496 37.1695 66.4138 36.7741 66.594 36.339C66.7743 35.9039 66.867 35.4375 66.867 34.9666C66.867 34.4956 66.7743 34.0292 66.594 33.5941C66.4138 33.159 66.1496 32.7636 65.8166 32.4306C65.4836 32.0976 65.0882 31.8334 64.6531 31.6532C64.218 31.4729 63.7516 31.3802 63.2806 31.3802C62.8097 31.3802 62.3433 31.4729 61.9082 31.6532C61.473 31.8334 61.0777 32.0976 60.7447 32.4306V32.4318ZM67.1579 41.4999C67.1578 40.6339 67.0911 39.7692 66.9584 38.9134C66.9427 38.812 66.9071 38.7147 66.8538 38.6271C66.8004 38.5395 66.7303 38.4632 66.6475 38.4027C66.5647 38.3422 66.4708 38.2985 66.3711 38.2743C66.2714 38.2501 66.1679 38.2457 66.0666 38.2614C65.9652 38.2772 65.8679 38.3128 65.7803 38.3661C65.6927 38.4195 65.6165 38.4895 65.5559 38.5724C65.4954 38.6552 65.4518 38.7491 65.4275 38.8488C65.4033 38.9485 65.3989 39.0519 65.4147 39.1533C65.5352 39.9297 65.5957 40.7142 65.5955 41.4999C65.596 44.9903 64.387 48.3731 62.1745 51.0726C59.9619 53.7721 56.8823 55.6216 53.4598 56.3065C50.0372 56.9913 46.4831 56.4692 43.4021 54.8289C40.3212 53.1886 37.9037 50.5315 36.561 47.3096C35.2184 44.0878 35.0335 40.5003 36.0378 37.1575C37.0421 33.8147 39.1736 30.9231 42.0696 28.9748C44.9656 27.0265 48.4472 26.1417 51.9221 26.471C55.3969 26.8004 58.6503 28.3235 61.1287 30.7813C61.2759 30.9272 61.4751 31.0087 61.6824 31.0077C61.8897 31.0068 62.0881 30.9235 62.2341 30.7763C62.38 30.6291 62.4614 30.4299 62.4605 30.2226C62.4596 30.0153 62.3763 29.8168 62.2291 29.6709C59.4946 26.9595 55.9052 25.2792 52.0715 24.9159C48.2378 24.5526 44.3967 25.5288 41.2016 27.6783C38.0065 29.8279 35.6549 33.018 34.5468 36.706C33.4387 40.394 33.6425 44.352 35.1237 47.9066C36.6049 51.4612 39.2719 54.3929 42.6709 56.2028C46.0699 58.0127 49.991 58.5891 53.7671 57.8338C57.5432 57.0785 60.941 55.0383 63.3824 52.0603C65.8237 49.0822 67.1579 45.3503 67.1579 41.4994V41.4999ZM25.4631 41.4999C25.4631 41.4451 25.4523 41.3907 25.4313 41.34C25.4103 41.2894 25.3795 41.2433 25.3407 41.2045C25.3019 41.1657 25.2559 41.135 25.2052 41.114C25.1545 41.093 25.1001 41.0822 25.0452 41.0823H20.4176C20.3085 41.0849 20.2048 41.1301 20.1286 41.2081C20.0524 41.2862 20.0098 41.391 20.0098 41.5C20.0098 41.6091 20.0524 41.7139 20.1286 41.792C20.2048 41.87 20.3085 41.9152 20.4176 41.9178H25.0452C25.1001 41.9179 25.1545 41.9071 25.2052 41.8861C25.2559 41.8651 25.3019 41.8344 25.3407 41.7956C25.3795 41.7568 25.4103 41.7107 25.4313 41.6601C25.4523 41.6094 25.4631 41.555 25.4631 41.5002V41.4999ZM80.5823 41.0823H75.9539C75.8982 41.0809 75.8428 41.0907 75.7909 41.1111C75.7391 41.1315 75.6918 41.1621 75.6519 41.201C75.6121 41.2399 75.5804 41.2864 75.5587 41.3378C75.5371 41.3892 75.526 41.4443 75.526 41.5C75.526 41.5558 75.5371 41.6109 75.5587 41.6623C75.5804 41.7136 75.6121 41.7602 75.6519 41.7991C75.6918 41.838 75.7391 41.8686 75.7909 41.889C75.8428 41.9094 75.8982 41.9192 75.9539 41.9178H80.5816C80.6906 41.9152 80.7943 41.87 80.8705 41.792C80.9467 41.7139 80.9894 41.6091 80.9894 41.5C80.9894 41.391 80.9467 41.2862 80.8705 41.2081C80.7943 41.1301 80.6906 41.0849 80.5816 41.0823H80.5823ZM50.5001 66.5368C50.4452 66.5368 50.3908 66.5476 50.3401 66.5686C50.2894 66.5896 50.2433 66.6204 50.2045 66.6592C50.1657 66.698 50.1349 66.7441 50.1139 66.7948C50.0929 66.8455 50.0821 66.8999 50.0822 66.9547V71.5824C50.0848 71.6914 50.13 71.7952 50.208 71.8714C50.2861 71.9476 50.3909 71.9902 50.4999 71.9902C50.609 71.9902 50.7138 71.9476 50.7919 71.8714C50.8699 71.7952 50.9151 71.6914 50.9177 71.5824V66.954C50.9177 66.8992 50.9069 66.8449 50.8859 66.7943C50.8649 66.7437 50.8341 66.6977 50.7953 66.6589C50.7565 66.6202 50.7105 66.5895 50.6598 66.5685C50.6092 66.5476 50.5549 66.5368 50.5001 66.5368V66.5368ZM50.0822 11.4182V16.0458C50.0848 16.1549 50.13 16.2586 50.208 16.3348C50.2861 16.411 50.3909 16.4537 50.4999 16.4537C50.609 16.4537 50.7138 16.411 50.7919 16.3348C50.8699 16.2586 50.9151 16.1549 50.9177 16.0458V11.4182C50.9191 11.3625 50.9093 11.3071 50.8889 11.2552C50.8685 11.2033 50.8379 11.1561 50.799 11.1162C50.7601 11.0763 50.7135 11.0446 50.6622 11.023C50.6108 11.0014 50.5557 10.9902 50.4999 10.9902C50.4442 10.9902 50.3891 11.0014 50.3377 11.023C50.2864 11.0446 50.2398 11.0763 50.2009 11.1162C50.162 11.1561 50.1314 11.2033 50.111 11.2552C50.0906 11.3071 50.0808 11.3625 50.0822 11.4182V11.4182ZM32.2052 59.204L28.9342 62.4762C28.8582 62.5551 28.8162 62.6606 28.8173 62.77C28.8183 62.8795 28.8622 62.9842 28.9396 63.0616C29.017 63.1391 29.1216 63.183 29.2311 63.1841C29.3406 63.1851 29.4461 63.1432 29.525 63.0673L32.796 59.7948C32.8743 59.7164 32.9184 59.6102 32.9184 59.4994C32.9184 59.3886 32.8743 59.2823 32.796 59.204C32.7177 59.1257 32.6114 59.0816 32.5006 59.0816C32.3898 59.0816 32.2836 59.1257 32.2052 59.204V59.204ZM71.4771 19.9321L68.2039 23.2056C68.1279 23.2844 68.086 23.3899 68.087 23.4994C68.088 23.6088 68.1319 23.7135 68.2093 23.791C68.2867 23.8684 68.3914 23.9123 68.5008 23.9134C68.6103 23.9144 68.7158 23.8725 68.7947 23.7966L72.0669 20.5241C72.1453 20.4457 72.1893 20.3394 72.1893 20.2286C72.1893 20.1177 72.1453 20.0114 72.0669 19.9331C71.9886 19.8547 71.8823 19.8107 71.7714 19.8107C71.6606 19.8107 71.5543 19.8547 71.4759 19.9331L71.4771 19.9321ZM68.7959 59.204C68.7571 59.1652 68.711 59.1344 68.6604 59.1134C68.6097 59.0924 68.5554 59.0816 68.5005 59.0816C68.4456 59.0816 68.3913 59.0924 68.3406 59.1134C68.29 59.1344 68.2439 59.1652 68.2051 59.204C68.1663 59.2428 68.1355 59.2888 68.1146 59.3395C68.0936 59.3902 68.0828 59.4445 68.0828 59.4994C68.0828 59.5542 68.0936 59.6086 68.1146 59.6592C68.1355 59.7099 68.1663 59.756 68.2051 59.7948L71.4771 63.0673C71.5555 63.1456 71.6618 63.1897 71.7726 63.1897C71.8835 63.1897 71.9898 63.1456 72.0681 63.0673C72.1465 62.9889 72.1905 62.8826 72.1905 62.7718C72.1905 62.6609 72.1465 62.5546 72.0681 62.4762L68.7959 59.204ZM28.9342 19.9343C28.8953 19.9731 28.8645 20.0191 28.8434 20.0698C28.8224 20.1205 28.8116 20.1749 28.8116 20.2298C28.8116 20.2847 28.8224 20.3391 28.8434 20.3898C28.8645 20.4405 28.8953 20.4865 28.9342 20.5253L32.2052 23.7966C32.2841 23.8725 32.3896 23.9144 32.4991 23.9134C32.6085 23.9123 32.7132 23.8684 32.7906 23.791C32.868 23.7135 32.9119 23.6088 32.9129 23.4994C32.9139 23.3899 32.872 23.2844 32.796 23.2056L29.524 19.9343C29.4456 19.8563 29.3396 19.8126 29.2291 19.8126C29.1186 19.8126 29.0125 19.8563 28.9342 19.9343V19.9343ZM26.8239 50.8552L22.5475 52.6261C22.4582 52.663 22.3844 52.7299 22.3388 52.8151C22.2933 52.9004 22.2787 52.9989 22.2976 53.0937C22.3165 53.1885 22.3677 53.2739 22.4426 53.3351C22.5174 53.3964 22.6111 53.4298 22.7078 53.4297C22.7626 53.4299 22.8169 53.4191 22.8674 53.3979L27.1425 51.6278C27.2449 51.5854 27.3262 51.5041 27.3686 51.4018C27.411 51.2994 27.411 51.1844 27.3686 51.0821C27.3263 50.9797 27.2449 50.8984 27.1426 50.856C27.0403 50.8136 26.9253 50.8136 26.8229 50.8559L26.8239 50.8552ZM73.6296 31.9192C73.6505 31.97 73.6813 32.0161 73.7201 32.0549C73.7589 32.0937 73.8049 32.1245 73.8557 32.1456C73.9064 32.1666 73.9607 32.1774 74.0156 32.1773C74.0705 32.1773 74.1249 32.1664 74.1756 32.1454L78.4514 30.3747C78.5538 30.3323 78.6351 30.2509 78.6775 30.1485C78.7199 30.0461 78.7199 29.931 78.6774 29.8286C78.635 29.7263 78.5536 29.6449 78.4512 29.6025C78.3488 29.5601 78.2337 29.5602 78.1313 29.6026L73.8557 31.3735C73.7534 31.4159 73.6721 31.4972 73.6297 31.5996C73.5873 31.7019 73.5872 31.8169 73.6296 31.9192V31.9192ZM60.6277 64.8568C60.6067 64.8061 60.5759 64.76 60.5371 64.7213C60.4983 64.6825 60.4523 64.6517 60.4016 64.6307C60.3509 64.6097 60.2966 64.5989 60.2417 64.5989C60.1869 64.5989 60.1325 64.6098 60.0819 64.6308C60.0312 64.6518 59.9851 64.6825 59.9463 64.7213C59.9075 64.7601 59.8768 64.8062 59.8558 64.8569C59.8348 64.9076 59.824 64.9619 59.824 65.0167C59.824 65.0716 59.8348 65.1259 59.8558 65.1766L61.6265 69.4527C61.6583 69.5292 61.7121 69.5945 61.781 69.6403C61.85 69.6862 61.931 69.7105 62.0139 69.7103C62.0686 69.7105 62.1228 69.6998 62.1734 69.6788C62.2758 69.6364 62.3571 69.5551 62.3995 69.4527C62.442 69.3503 62.442 69.2352 62.3995 69.1329L60.6277 64.8568ZM38.8284 13.3217C38.7261 13.3642 38.6448 13.4456 38.6024 13.5479C38.56 13.6503 38.5599 13.7653 38.6023 13.8677L40.3732 18.1438C40.4048 18.2201 40.4583 18.2852 40.527 18.3311C40.5956 18.3769 40.6763 18.4014 40.7588 18.4014C40.8138 18.4017 40.8682 18.3909 40.9189 18.3697C41.0212 18.3273 41.1025 18.246 41.1449 18.1436C41.1873 18.0413 41.1874 17.9263 41.145 17.824L39.3744 13.5476C39.3534 13.4969 39.3227 13.4508 39.2839 13.412C39.2451 13.3732 39.199 13.3424 39.1483 13.3215C39.0976 13.3005 39.0432 13.2897 38.9883 13.2898C38.9334 13.2898 38.8791 13.3007 38.8284 13.3217V13.3217ZM40.9191 64.6297C40.8168 64.5873 40.7018 64.5874 40.5995 64.6298C40.4971 64.6722 40.4158 64.7535 40.3734 64.8558L38.6023 69.1331C38.5613 69.2352 38.5623 69.3493 38.605 69.4507C38.6477 69.5521 38.7286 69.6326 38.8302 69.6747C38.9319 69.7168 39.046 69.7171 39.1479 69.6756C39.2498 69.6341 39.3312 69.5541 39.3744 69.4529L41.145 65.1769C41.1662 65.1261 41.1771 65.0717 41.1772 65.0167C41.1773 64.9617 41.1666 64.9072 41.1456 64.8564C41.1246 64.8056 41.0938 64.7594 41.0549 64.7205C41.0161 64.6816 40.9699 64.6507 40.9191 64.6297V64.6297ZM61.6255 13.5476L59.8549 17.824C59.8125 17.9263 59.8126 18.0413 59.855 18.1436C59.8974 18.246 59.9787 18.3273 60.081 18.3697C60.1317 18.3908 60.1861 18.4016 60.241 18.4014C60.3236 18.4015 60.4043 18.377 60.473 18.3312C60.5417 18.2853 60.5952 18.2201 60.6267 18.1438L62.3976 13.8677C62.4401 13.7653 62.4401 13.6503 62.3977 13.5479C62.3553 13.4454 62.274 13.3641 62.1716 13.3216C62.0692 13.2792 61.9541 13.2791 61.8517 13.3215C61.7493 13.3639 61.6679 13.4452 61.6255 13.5476V13.5476ZM78.4528 52.6258L74.177 50.855C74.1263 50.834 74.072 50.8232 74.0171 50.8231C73.9623 50.8231 73.9079 50.8339 73.8573 50.8549C73.8066 50.8759 73.7605 50.9067 73.7217 50.9455C73.6829 50.9843 73.6521 51.0303 73.6311 51.081C73.6101 51.1317 73.5993 51.186 73.5993 51.2409C73.5993 51.2957 73.6101 51.35 73.6311 51.4007C73.6521 51.4514 73.6829 51.4975 73.7216 51.5363C73.7604 51.5751 73.8065 51.6058 73.8572 51.6268L78.1328 53.3977C78.1835 53.4189 78.238 53.4297 78.293 53.4294C78.3897 53.4295 78.4834 53.396 78.5581 53.3347C78.6328 53.2734 78.684 53.188 78.7028 53.0932C78.7217 52.9984 78.7071 52.9 78.6615 52.8148C78.6159 52.7296 78.5422 52.6628 78.4528 52.6258ZM27.1425 31.3732L22.8674 29.6024C22.8166 29.5806 22.7619 29.5692 22.7066 29.5687C22.6514 29.5683 22.5965 29.5788 22.5453 29.5996C22.4942 29.6205 22.4476 29.6513 22.4084 29.6903C22.3692 29.7293 22.3381 29.7756 22.317 29.8267C22.2958 29.8778 22.285 29.9325 22.2852 29.9878C22.2853 30.0431 22.2964 30.0978 22.3179 30.1487C22.3393 30.1997 22.3707 30.2459 22.4101 30.2846C22.4495 30.3234 22.4962 30.3539 22.5475 30.3745L26.8239 32.1451C26.8744 32.1664 26.9286 32.1772 26.9834 32.1771C27.0801 32.177 27.1737 32.1435 27.2484 32.0822C27.323 32.0209 27.3742 31.9356 27.393 31.8408C27.4119 31.746 27.3973 31.6476 27.3518 31.5624C27.3063 31.4772 27.2327 31.4103 27.1435 31.3732H27.1425Z" fill="white"/>
</g>
<defs>
<clipPath id="clip0_132_137">
<rect width="61" height="61" fill="white" transform="translate(20 11)"/>
</clipPath>
</defs>
</svg>
