<svg width="100" height="82" viewBox="0 0 100 82" fill="none" xmlns="http://www.w3.org/2000/svg">
<rect x="0.5" y="0.5" width="99" height="81" rx="19.5" fill="white" fill-opacity="0.4" stroke="white"/>
<path d="M20.6985 41.4722L35.6985 57.8278V60.6538C35.6996 61.2807 35.8625 61.8963 36.171 62.4391C36.4794 62.9818 36.9227 63.4328 37.4564 63.7467L48.2423 70.0802C48.7775 70.3917 49.3834 70.5556 50.0001 70.5556C50.6168 70.5556 51.2227 70.3917 51.7579 70.0802L62.5439 63.7467C63.0775 63.4328 63.5208 62.9818 63.8292 62.4391C64.1377 61.8963 64.3006 61.2807 64.3017 60.6538V57.8278L79.3017 41.4722C79.4041 41.3641 79.4698 41.2255 79.4892 41.0767C80.3939 34.0521 77.6189 25.8267 72.6735 19.8982C62.0939 7.20736 37.8782 7.24072 27.3267 19.8982C22.3814 25.8267 19.6064 34.0521 20.511 41.0767C20.5304 41.2255 20.5961 41.3641 20.6985 41.4722V41.4722ZM45.7814 57.8945C45.7811 58.0511 45.7306 58.2033 45.6376 58.328C45.5445 58.4527 45.4139 58.5431 45.2657 58.5856C45.117 58.6253 44.9596 58.6153 44.8169 58.5569C44.6742 58.4985 44.5538 58.3949 44.4735 58.2615L41.5626 53.3291V57.8945C41.5626 58.0841 41.4885 58.266 41.3567 58.4C41.2248 58.5341 41.046 58.6094 40.8595 58.6094C40.673 58.6094 40.4942 58.5341 40.3623 58.4C40.2304 58.266 40.1564 58.0841 40.1564 57.8945V50.7461C40.1559 50.5893 40.2062 50.4367 40.2994 50.3117C40.3927 50.1868 40.5237 50.0966 40.6724 50.0548C40.8211 50.0131 40.9792 50.0223 41.1222 50.0809C41.2653 50.1395 41.3855 50.2443 41.4642 50.3792L44.3751 55.3116V50.7461C44.3751 50.5565 44.4492 50.3747 44.581 50.2406C44.7129 50.1066 44.8918 50.0313 45.0782 50.0313C45.2647 50.0313 45.4436 50.1066 45.5754 50.2406C45.7073 50.3747 45.7814 50.5565 45.7814 50.7461V57.8945ZM40.0157 39.9901C43.2032 34.0188 56.797 34.0216 59.9845 39.9901L58.7048 42.6398L51.7579 38.5604C51.2227 38.2489 50.6168 38.0851 50.0001 38.0851C49.3834 38.0851 48.7775 38.2489 48.2423 38.5604L41.2954 42.6398L40.0157 39.9901ZM52.1095 51.4609H48.5939V53.8438H51.6407C51.8272 53.8438 52.0061 53.9191 52.1379 54.0531C52.2698 54.1872 52.3439 54.369 52.3439 54.5586C52.3439 54.7482 52.2698 54.93 52.1379 55.0641C52.0061 55.1981 51.8272 55.2734 51.6407 55.2734H48.5939V57.8945C48.5939 58.0841 48.5198 58.266 48.3879 58.4C48.2561 58.5341 48.0772 58.6094 47.8907 58.6094C47.7043 58.6094 47.5254 58.5341 47.3935 58.4C47.2617 58.266 47.1876 58.0841 47.1876 57.8945V50.7461C47.1876 50.5565 47.2617 50.3747 47.3935 50.2406C47.5254 50.1066 47.7043 50.0313 47.8907 50.0313H52.1095C52.296 50.0313 52.4748 50.1066 52.6067 50.2406C52.7385 50.3747 52.8126 50.5565 52.8126 50.7461C52.8126 50.9357 52.7385 51.1175 52.6067 51.2516C52.4748 51.3856 52.296 51.4609 52.1095 51.4609ZM59.1407 51.4609H57.7345V57.8945C57.7345 58.0841 57.6604 58.266 57.5285 58.4C57.3967 58.5341 57.2178 58.6094 57.0314 58.6094C56.8449 58.6094 56.666 58.5341 56.5342 58.4C56.4023 58.266 56.3282 58.0841 56.3282 57.8945V51.4609H54.922C54.7355 51.4609 54.5567 51.3856 54.4248 51.2516C54.2929 51.1175 54.2189 50.9357 54.2189 50.7461C54.2189 50.5565 54.2929 50.3747 54.4248 50.2406C54.5567 50.1066 54.7355 50.0313 54.922 50.0313H59.1407C59.3272 50.0313 59.5061 50.1066 59.6379 50.2406C59.7698 50.3747 59.8439 50.5565 59.8439 50.7461C59.8439 50.9357 59.7698 51.1175 59.6379 51.2516C59.5061 51.3856 59.3272 51.4609 59.1407 51.4609ZM77.9095 40.8908L64.3017 55.7309V47.9868C64.3006 47.3599 64.1377 46.7443 63.8292 46.2016C63.5208 45.6588 63.0775 45.2079 62.5439 44.8939L59.9235 43.3546L61.372 40.3666C64.8075 35.4332 74.7801 35.6667 77.9095 40.8908ZM48.3403 11.708C49.4184 11.6556 50.5814 11.6556 51.66 11.708C54.397 14.9038 60.9412 23.9824 61.454 38.193C61.2571 38.3717 61.065 38.5552 60.884 38.7491C60.625 38.3712 60.3356 38.0157 60.0187 37.6864C59.3034 23.1922 51.9689 14.158 50.0001 11.983C48.0314 14.1575 40.6968 23.1922 39.9815 37.6883C39.6647 38.0178 39.3752 38.3734 39.1162 38.7515C38.9353 38.5575 38.7412 38.3741 38.5462 38.1954C39.0585 23.9819 45.6032 14.9038 48.3403 11.708V11.708ZM38.6282 40.3666L40.0767 43.3546L37.4564 44.8939C36.9227 45.2079 36.4794 45.6588 36.171 46.2016C35.8625 46.7443 35.6996 47.3599 35.6985 47.9868V55.7309L22.0907 40.8908C25.221 35.6662 35.1932 35.4342 38.6282 40.3666V40.3666Z" fill="white"/>
</svg>
