<svg width="100" height="82" viewBox="0 0 100 82" fill="none" xmlns="http://www.w3.org/2000/svg">
<rect x="0.5" y="0.5" width="99" height="81" rx="19.5" fill="white" fill-opacity="0.4" stroke="white"/>
<path d="M75.527 61.9187L24.3697 51.1108L23.922 53.2448C23.7415 54.0933 23.9064 54.9787 24.3802 55.7054C24.854 56.432 25.5977 56.94 26.4469 57.1172L71.2057 66.5722C72.9696 66.9453 74.7025 65.8193 75.0781 64.0559L75.527 61.9187Z" fill="white"/>
<path d="M33.1647 28.2553C33.9882 29.0999 34.3585 30.2871 34.1614 31.4502L32.9491 38.8051C32.8442 39.3636 33.0696 39.9328 33.5286 40.268C33.903 40.5438 34.4046 40.5741 34.8096 40.3454L41.2516 36.8237C42.2627 36.2696 43.4866 36.2696 44.4977 36.8237L50.9364 40.3454C51.3413 40.5747 51.8431 40.5444 52.2174 40.268C52.6764 39.9328 52.9018 39.3636 52.7969 38.8051L51.5901 31.4491C51.3933 30.2863 51.7641 29.0994 52.5879 28.2553L57.7021 23.0714C58.0987 22.6616 58.231 22.0635 58.0441 21.5246C57.9016 21.0405 57.495 20.6806 56.9974 20.5976L49.8669 19.5203C48.718 19.3394 47.735 18.5974 47.2461 17.5422L44.0314 10.7712C43.8373 10.3043 43.3814 10 42.8756 10C42.3699 10 41.9139 10.3043 41.7198 10.7712L38.5053 17.5422C38.0165 18.5975 37.0335 19.3394 35.8845 19.5203L28.754 20.5976C28.2564 20.6805 27.8497 21.0405 27.7072 21.5246C27.5204 22.0635 27.6527 22.6616 28.0493 23.0714L33.1647 28.2553Z" fill="white"/>
<path d="M23.2686 71H69.0186C70.4064 70.9959 71.6395 70.1138 72.0915 68.8018C72.0229 68.8018 71.9553 68.8192 71.8856 68.8192C71.5049 68.819 71.1252 68.7788 70.7527 68.6994L55.859 65.5535H20.0007V67.7321C20.0007 69.5369 21.4639 71 23.2686 71V71Z" fill="white"/>
<path d="M25.9918 59.2443C24.5772 58.9476 23.3387 58.1003 22.5497 56.8894C21.7608 55.6784 21.4859 54.2031 21.7862 52.7893L22.4593 49.5999V49.5944L25.3034 36.1428H23.2686C21.4639 36.1428 20.0007 37.6059 20.0007 39.4107V63.3749H45.5466L25.9918 59.2443Z" fill="white"/>
<path d="M66.339 42.1634L72.7332 43.5151C73.016 43.5765 73.3117 43.5229 73.5549 43.3658C73.7981 43.2089 73.9688 42.9616 74.0294 42.6785L74.9292 38.4161C74.9893 38.1325 74.9341 37.8366 74.7754 37.594C74.6167 37.3513 74.3678 37.1818 74.0839 37.1232L67.6897 35.7725C67.407 35.7128 67.1122 35.7679 66.8701 35.9256C66.6281 36.0834 66.4585 36.3307 66.3989 36.6134L65.4992 40.8758C65.3768 41.463 65.7522 42.0386 66.339 42.1634Z" fill="white"/>
<path d="M54.1377 29.7858C53.8033 30.1326 53.6547 30.6184 53.738 31.0929L54.9504 38.4499C55.1955 39.8309 54.6245 41.2296 53.4832 42.0445C52.4294 42.8023 51.0339 42.887 49.8962 42.2625L43.4542 38.7353C43.0941 38.5368 42.6573 38.5368 42.2973 38.7353L35.8552 42.257C34.7176 42.8821 33.3218 42.7974 32.2683 42.0391C31.1269 41.2241 30.5559 39.8253 30.8011 38.4445L32.0134 31.0885C32.0965 30.614 31.948 30.1282 31.6137 29.7814L29.3546 27.4939L24.8208 48.979L75.9769 59.7868L80.9266 36.3432C81.1087 35.4965 80.946 34.6121 80.4747 33.8854C80.0034 33.1588 79.2621 32.6498 78.4148 32.4708L56.1291 27.7672L54.1377 29.7858ZM73.6785 54.8481C73.5721 55.3511 73.1284 55.7112 72.6142 55.7119C72.5381 55.7118 72.4622 55.7041 72.3876 55.689L62.7953 53.6618C62.2067 53.5373 61.8304 52.9591 61.9549 52.3705C62.0794 51.7818 62.6576 51.4055 63.2463 51.53L72.8385 53.5572C73.4268 53.682 73.8028 54.2598 73.6785 54.8481V54.8481ZM74.5793 50.5847C74.5196 50.8674 74.3502 51.1147 74.1081 51.2725C73.866 51.4302 73.5712 51.4852 73.2885 51.4256L54.1051 47.3735C53.5164 47.249 53.1402 46.6708 53.2647 46.0821C53.3892 45.4934 53.9674 45.1172 54.556 45.2417L73.7395 49.2938C74.3278 49.4185 74.7037 49.9963 74.5793 50.5847V50.5847ZM63.3673 40.4227L64.2671 36.1603C64.446 35.312 64.9546 34.5695 65.6811 34.0964C66.4077 33.6233 67.2923 33.4582 68.1406 33.6375L74.5347 34.9882C75.3837 35.1673 76.1267 35.6767 76.5998 36.4042C77.0728 37.1317 77.2372 38.0173 77.0565 38.8661L76.1567 43.1285C75.7794 44.8899 74.0497 46.0154 72.2864 45.6469L65.8923 44.2951C65.0437 44.1166 64.301 43.6084 63.8274 42.8821C63.3539 42.1558 63.1884 41.2711 63.3673 40.4227V40.4227Z" fill="white"/>
</svg>
