<svg width="100" height="82" viewBox="0 0 100 82" fill="none" xmlns="http://www.w3.org/2000/svg">
<rect x="0.5" y="0.5" width="99" height="81" rx="19.5" fill="white" fill-opacity="0.4" stroke="white"/>
<path fill-rule="evenodd" clip-rule="evenodd" d="M65.1737 46.4224L65.1722 46.4239L64.528 45.7448C63.9658 45.1521 63.0371 45.0821 62.3894 45.5788L61.3073 46.2865C61.7913 47.8056 61.1185 49.4955 59.6515 50.2424L57.9105 51.1289H60.4242L63.1949 49.0037L65.2109 51.1289H69.6385L65.1737 46.4224ZM48.1758 44.7071L52.0206 42.4412C52.7191 42.0295 52.954 41.1278 52.5427 40.4284C52.1318 39.73 51.2293 39.4949 50.5308 39.9067L45.6367 42.7909L48.1758 44.7071ZM37.5574 48.3231C36.9086 47.84 36.769 46.9244 37.2516 46.2735C37.7325 45.6249 38.6498 45.485 39.2985 45.9682L41.9603 47.9507L42.2746 48.1849L45.7764 50.793C46.3448 51.2163 47.0834 51.2789 47.7149 50.9571L57.4827 45.9787C58.2061 45.61 59.0909 45.8992 59.4589 46.6225C59.8271 47.3464 59.5387 48.231 58.815 48.5994L47.2183 54.5039C46.7252 54.755 46.129 54.7074 45.6837 54.3758L37.5574 48.3231ZM74.1091 58.0856H45.2644C43.7624 58.0856 42.4704 57.5849 41.3605 56.5732L31.2418 47.349C30.8222 46.9665 30.6306 46.4517 30.6975 45.8881C30.7646 45.3244 31.075 44.8748 31.5693 44.5958L36.4036 41.8668C38.0052 40.9627 39.9538 40.8122 41.422 41.9201L49.4698 47.9933L46.8778 49.3144H46.8777L40.3998 44.4896C38.9338 43.3977 36.8585 43.7081 35.7706 45.1755C34.6828 46.6427 34.9924 48.7117 36.4561 49.8019L44.5826 55.8547C45.5895 56.6047 46.9393 56.7152 48.0549 56.1472L55.3513 52.4322L56.0679 52.9729H74.1089C75.5169 52.9729 76.6654 54.1213 76.6654 55.5293C76.6655 56.9371 75.5171 58.0856 74.1091 58.0856V58.0856ZM25.2321 35.336C23.6025 36.9654 23.739 39.7437 25.5366 41.5414C27.3343 43.339 30.1126 43.4754 31.742 41.8459C33.3714 40.2165 33.2351 37.4382 31.4374 35.6406C29.6398 33.8429 26.8615 33.7065 25.2321 35.336V35.336ZM44.4882 22.595C44.4882 22.0859 44.901 21.6731 45.4101 21.6731C45.9192 21.6731 46.3319 22.0859 46.3319 22.595V30.8142C46.3319 31.3233 45.9192 31.7361 45.4101 31.7361C44.901 31.7361 44.4882 31.3233 44.4882 30.8142V22.595ZM38.87 27.1239C38.87 26.6148 39.2828 26.2021 39.7919 26.2021C40.301 26.2021 40.7138 26.6148 40.7138 27.1239V35.3433C40.7138 35.8524 40.301 36.2651 39.7919 36.2651C39.2828 36.2651 38.87 35.8524 38.87 35.3433V27.1239ZM33.2519 22.595C33.2519 22.0859 33.6647 21.6731 34.1738 21.6731C34.6829 21.6731 35.0957 22.0859 35.0957 22.595V30.8142C35.0957 31.3233 34.6829 31.7361 34.1738 31.7361C33.6647 31.7361 33.2519 31.3233 33.2519 30.8142V22.595ZM21.6832 49.6721C20.7176 48.7737 20.6632 47.2623 21.5616 46.2967C22.4601 45.3311 23.9714 45.2768 24.9369 46.1752L41.0728 61.1636H75.6844C77.0064 61.1636 78.0781 62.2353 78.0781 63.5572C78.0781 64.8792 77.0064 65.9509 75.6844 65.9509H40.1404V65.9454C39.5578 65.9455 38.9736 65.7339 38.5135 65.3057L21.6832 49.6721ZM68.9704 17.6652C67.346 16.0407 65.1015 15.0358 62.6224 15.0358C60.1432 15.0358 57.8989 16.0407 56.2744 17.6652C54.6498 19.2897 53.6451 21.5341 53.6451 24.0132C53.6451 26.4922 54.6499 28.7368 56.2744 30.3612C57.8989 31.9858 60.1433 32.9906 62.6224 32.9906C65.1014 32.9906 67.346 31.9858 68.9704 30.3612C70.5949 28.7368 71.5998 26.4923 71.5998 24.0132C71.5998 21.534 70.595 19.2897 68.9704 17.6652ZM62.6224 13.1921C65.6104 13.1921 68.3158 14.4033 70.2739 16.3616C72.2322 18.3199 73.4435 21.0253 73.4435 24.0133C73.4435 27.0013 72.2321 29.7067 70.2739 31.6649C68.3158 33.623 65.6104 34.8344 62.6224 34.8344C59.6344 34.8344 56.929 33.6232 54.9707 31.6649C53.0125 29.7067 51.8012 27.0013 51.8012 24.0133C51.8012 21.0253 53.0124 18.3199 54.9707 16.3616C56.929 14.4033 59.6344 13.1921 62.6224 13.1921V13.1921ZM66.3969 20.6452C66.5961 21.1202 66.3726 21.6668 65.8977 21.866C65.4227 22.0653 64.8761 21.8417 64.6769 21.3667C64.3943 20.6937 63.8578 20.3053 63.2687 20.1559C62.8935 20.0609 62.5014 20.055 62.1366 20.1285C61.7828 20.1997 61.4571 20.3438 61.2026 20.5506C60.8852 20.8086 60.6838 21.1805 60.7062 21.641C60.7266 22.0613 60.9461 22.3497 61.252 22.5494C61.6663 22.8198 62.2374 22.97 62.7808 23.0592C63.5609 23.1872 64.4125 23.4011 65.1255 23.8315C65.9472 24.3277 66.5671 25.0738 66.7063 26.2211C66.717 26.3095 66.7238 26.4147 66.7267 26.5359C66.7517 27.5865 66.2729 28.369 65.5531 28.9151C64.9832 29.3476 64.2655 29.614 63.5553 29.734V30.2772C63.5553 30.7924 63.1376 31.2101 62.6224 31.2101C62.1072 31.2101 61.6894 30.7924 61.6894 30.2772V29.7159C61.1114 29.6035 60.5604 29.3883 60.0824 29.0701C59.3458 28.5796 58.7816 27.8558 58.5429 26.8982C58.4201 26.3991 58.7252 25.895 59.2244 25.7721C59.7234 25.6493 60.2276 25.9544 60.3504 26.4535C60.4666 26.9196 60.7453 27.2747 61.1101 27.5176C61.5617 27.8183 62.1414 27.9617 62.7298 27.9476C62.8282 27.9453 62.9471 27.9358 63.0859 27.9189C63.584 27.8586 64.0802 27.7013 64.4306 27.4354C64.6984 27.2321 64.8768 26.9492 64.8681 26.5793C64.8675 26.5528 64.8631 26.5064 64.8551 26.4394C64.7973 25.9642 64.5255 25.6459 64.1634 25.4273C63.6927 25.1432 63.068 24.9916 62.4819 24.8955C61.7276 24.7717 60.9087 24.546 60.2388 24.1087C59.4607 23.6009 58.9018 22.8492 58.8474 21.7281C58.7934 20.6147 59.2729 19.722 60.0289 19.1072C60.4976 18.7261 61.0741 18.4598 61.6893 18.3235V17.7486C61.6893 17.2334 62.1071 16.8156 62.6223 16.8156C63.1375 16.8156 63.5552 17.2334 63.5552 17.7486V18.3099C63.6105 18.3215 63.6656 18.3343 63.7203 18.3481C64.8415 18.6327 65.8613 19.3696 66.3969 20.6452V20.6452ZM62.6224 11.0493C69.7821 11.0493 75.5863 16.8534 75.5863 24.0132C75.5863 31.1729 69.7821 36.9771 62.6224 36.9771C55.4626 36.9771 49.6585 31.1729 49.6585 24.0132C49.6585 16.8534 55.4626 11.0493 62.6224 11.0493Z" fill="white"/>
</svg>
