<svg width="100" height="82" viewBox="0 0 100 82" fill="none" xmlns="http://www.w3.org/2000/svg">
<rect x="0.5" y="0.5" width="99" height="81" rx="19.5" fill="white" fill-opacity="0.4" stroke="white"/>
<path d="M69.5744 22.7973L56.9804 17.7139C56.8654 17.6713 56.7461 17.6414 56.6246 17.625C56.5489 17.6124 56.4716 17.6124 56.3958 17.625C56.2822 17.6065 56.1663 17.6065 56.0527 17.625H55.951L38.6804 22.7083L26.366 17.7139C26.1732 17.6371 25.9644 17.6087 25.758 17.6312C25.5516 17.6537 25.3539 17.7265 25.1821 17.8431C25.0103 17.9597 24.8697 18.1166 24.7726 18.3002C24.6755 18.4837 24.6248 18.6882 24.625 18.8958V57.0208C24.6248 57.2753 24.7009 57.524 24.8437 57.7348C24.9864 57.9455 25.1892 58.1085 25.4256 58.2027L38.0069 63.286H38.134C38.2139 63.299 38.2955 63.299 38.3754 63.286C38.4458 63.3289 38.5233 63.359 38.6042 63.375C38.7178 63.3935 38.8337 63.3935 38.9473 63.375H39.0235L56.3196 58.4314L68.634 63.3623C68.7883 63.3976 68.9481 63.4019 69.1042 63.375C69.4412 63.375 69.7645 63.2411 70.0028 63.0027C70.2411 62.7644 70.375 62.4412 70.375 62.1041V23.9791C70.3752 23.7246 70.2991 23.4759 70.1563 23.2652C70.0136 23.0544 69.8108 22.8914 69.5744 22.7973ZM31.3096 47.7945C31.4552 47.4918 31.7147 47.259 32.0314 47.1471C32.3482 47.0352 32.6963 47.0532 32.9998 47.1973C34.4821 47.9149 36.0261 48.4976 37.6129 48.9383C37.7752 48.981 37.9274 49.0555 38.0607 49.1574C38.194 49.2593 38.3059 49.3865 38.3897 49.5319C38.4736 49.6772 38.5279 49.8377 38.5494 50.0041C38.571 50.1705 38.5593 50.3395 38.5152 50.5014C38.4407 50.7787 38.2746 51.0225 38.0438 51.1933C37.8131 51.3641 37.5313 51.4517 37.2444 51.4418H36.914C35.1644 50.959 33.4628 50.3166 31.8306 49.5229C31.6824 49.4442 31.5512 49.3369 31.4447 49.2072C31.3382 49.0775 31.2584 48.928 31.2099 48.7673C31.1615 48.6066 31.1453 48.4379 31.1624 48.271C31.1795 48.104 31.2296 47.9421 31.3096 47.7945V47.7945ZM55.0106 30.4731C56.5102 30.3333 57.6667 30.3333 57.6667 30.3333C58.0037 30.3333 58.327 30.4672 58.5653 30.7055C58.8036 30.9438 58.9375 31.2671 58.9375 31.6041C58.9375 31.9412 58.8036 32.2644 58.5653 32.5027C58.327 32.7411 58.0037 32.875 57.6667 32.875C57.6667 32.875 56.6246 32.875 55.2394 33.002H55.125C54.788 33.0172 54.4587 32.8979 54.2096 32.6703C53.9606 32.4427 53.8121 32.1254 53.797 31.7884C53.7818 31.4514 53.9012 31.1221 54.1288 30.873C54.3564 30.624 54.6736 30.4755 55.0106 30.4604V30.4731ZM49.3046 41.7708C49.1361 41.4776 49.0909 41.1294 49.1791 40.8029C49.2673 40.4764 49.4816 40.1983 49.7748 40.0298C50.068 39.8612 50.4162 39.8161 50.7427 39.9043C51.0692 39.9925 51.3473 40.2067 51.5158 40.5C52.2333 41.6487 52.6486 42.9602 52.7231 44.3125C52.7208 45.0673 52.5561 45.8128 52.2402 46.4983C52.14 46.7213 51.9776 46.9106 51.7725 47.0436C51.5673 47.1766 51.3282 47.2476 51.0838 47.2481C50.8983 47.2487 50.7153 47.2051 50.55 47.121C50.246 46.98 50.01 46.7246 49.8934 46.4104C49.7767 46.0963 49.7889 45.7487 49.9273 45.4435C50.098 45.0911 50.185 44.704 50.1815 44.3125C50.1044 43.4057 49.803 42.5322 49.3046 41.7708V41.7708ZM48.9487 36.2427C49.0691 36.5562 49.0605 36.9046 48.9248 37.2118C48.789 37.519 48.5372 37.76 48.2244 37.882C48.0794 37.9421 47.9238 37.9724 47.7669 37.971C47.5109 37.9702 47.2611 37.8922 47.0502 37.7471C46.8393 37.6019 46.6772 37.3965 46.585 37.1577C46.3544 36.606 46.2335 36.0146 46.2292 35.4166C46.2292 34.2602 46.8138 32.6589 49.5588 31.6041C49.7148 31.5432 49.8813 31.5136 50.0488 31.5171C50.2162 31.5205 50.3814 31.5569 50.5348 31.6242C50.6882 31.6914 50.8269 31.7882 50.9429 31.9091C51.0589 32.0299 51.1499 32.1725 51.2108 32.3285C51.2717 32.4845 51.3013 32.6511 51.2979 32.8185C51.2945 32.986 51.2581 33.1512 51.1908 33.3046C51.1235 33.458 51.0267 33.5966 50.9059 33.7126C50.785 33.8286 50.6425 33.9197 50.4865 33.9806C49.8383 34.222 48.7708 34.7431 48.7708 35.4293C48.7857 35.696 48.8458 35.9581 48.9487 36.2045V36.2427ZM47.9702 50.6285C46.2593 51.543 44.3562 52.0395 42.4167 52.0773C42.0796 52.0773 41.7564 51.9434 41.5181 51.705C41.2797 51.4667 41.1458 51.1435 41.1458 50.8064C41.1458 50.4694 41.2797 50.1461 41.5181 49.9078C41.7564 49.6695 42.0796 49.5356 42.4167 49.5356C43.9493 49.4934 45.4509 49.093 46.801 48.3664C46.9471 48.283 47.1081 48.2291 47.2749 48.2079C47.4418 48.1867 47.6112 48.1986 47.7734 48.2428C47.9357 48.2871 48.0877 48.3628 48.2206 48.4658C48.3536 48.5688 48.465 48.697 48.5484 48.843C48.6319 48.989 48.6857 49.15 48.707 49.3169C48.7282 49.4837 48.7163 49.6531 48.6721 49.8154C48.6278 49.9776 48.552 50.1296 48.449 50.2626C48.3461 50.3955 48.2179 50.5069 48.0719 50.5904L47.9702 50.6285ZM65.4442 32.5064C65.6809 32.7445 65.8137 33.0666 65.8137 33.4024C65.8137 33.7381 65.6809 34.0602 65.4442 34.2983C65.2061 34.535 64.884 34.6678 64.5482 34.6678C64.2125 34.6678 63.8904 34.535 63.6523 34.2983L62.75 33.396L61.8477 34.2983C61.6096 34.535 61.2875 34.6678 60.9518 34.6678C60.616 34.6678 60.2939 34.535 60.0558 34.2983C59.8191 34.0602 59.6863 33.7381 59.6863 33.4024C59.6863 33.0666 59.8191 32.7445 60.0558 32.5064L60.9581 31.6041L60.0558 30.7018C59.8476 30.4587 59.7388 30.146 59.7512 29.8262C59.7636 29.5063 59.8961 29.2029 60.1225 28.9766C60.3488 28.7503 60.6522 28.6177 60.972 28.6053C61.2919 28.593 61.6046 28.7018 61.8477 28.91L62.75 29.8123L63.6523 28.91C63.8954 28.7018 64.2081 28.593 64.528 28.6053C64.8478 28.6177 65.1512 28.7503 65.3775 28.9766C65.6039 29.2029 65.7364 29.5063 65.7488 29.8262C65.7612 30.146 65.6524 30.4587 65.4442 30.7018L64.5419 31.6041L65.4442 32.5064ZM28.6663 44.7191C28.8974 44.8684 29.0738 45.0887 29.1691 45.3468C29.2643 45.6049 29.2732 45.887 29.1944 46.1506C29.1156 46.4142 28.9533 46.6452 28.7321 46.8087C28.5108 46.9722 28.2424 47.0595 27.9673 47.0575C27.7195 47.0593 27.4765 46.9886 27.2683 46.8541H27.1667V43.677C27.4971 43.9312 28.0181 44.3125 28.6663 44.7191V44.7191Z" fill="white"/>
</svg>
