<svg width="1440" height="153" viewBox="0 0 1440 153" fill="none" xmlns="http://www.w3.org/2000/svg">
<g clip-path="url(#clip0_175_11)">
<path fill-rule="evenodd" clip-rule="evenodd" d="M1569 184C1569 82.3796 1380.74 0 1148.5 0C1001.99 0 892.278 60.8956 811.287 105.851C763.901 132.154 726.345 153 697 153C697 163.256 699.234 173.633 703.489 184H1569Z" fill="#FDE9E4"/>
<path fill-rule="evenodd" clip-rule="evenodd" d="M951.099 202.228C964.872 185.56 972.5 169 972.5 153.125C824.565 161.026 741.419 121.039 660.112 81.937C588.772 47.6279 518.848 14 407.817 14C170.245 14 -22.3447 98.2724 -22.3447 202.228C-22.3447 213.972 -19.8868 225.464 -15.1839 236.613V202.228H951.099Z" fill="#1E277D"/>
</g>
<defs>
<clipPath id="clip0_175_11">
<rect width="1440" height="153" fill="white"/>
</clipPath>
</defs>
</svg>
