<svg width="138" height="138" viewBox="0 0 138 138" fill="none" xmlns="http://www.w3.org/2000/svg">
<g filter="url(#filter0_di_132_131)">
<rect x="9" y="6" width="120" height="120" rx="20" fill="#E8E9F2"/>
<rect x="10.5" y="7.5" width="117" height="117" rx="18.5" stroke="white" stroke-width="3"/>
</g>
<path d="M88.012 40.2513L75.8054 28.0461C75.0027 27.2497 73.9177 26.8027 72.787 26.8027C71.6562 26.8027 70.5712 27.2497 69.7686 28.0461L47.846 49.9883C47.0498 50.7914 46.603 51.8765 46.603 53.0074C46.603 54.1383 47.0498 55.2234 47.846 56.0265L60.0512 68.2065C60.8566 69.0004 61.9421 69.4454 63.0731 69.4454C64.204 69.4454 65.2895 69.0004 66.095 68.2065L88.0092 46.2937C88.8063 45.4904 89.2539 44.4048 89.2544 43.2731C89.2549 42.1414 88.8084 41.0553 88.012 40.2513Z" fill="#1E277D"/>
<path d="M59.5345 34.3278L57.5059 32.2992C57.2268 32.0329 56.8558 31.8843 56.4699 31.8843C56.0841 31.8843 55.7131 32.0329 55.4339 32.2992L52.0991 35.634C51.8244 35.9091 51.6702 36.282 51.6702 36.6707C51.6702 37.0595 51.8244 37.4323 52.0991 37.7074L54.1277 39.7374L59.5345 34.3278Z" fill="#1E277D"/>
<path d="M101.687 87.28C102.041 87.6361 102.462 87.9185 102.926 88.1107C103.39 88.303 103.887 88.4013 104.389 88.4C105.002 88.4035 105.606 88.2565 106.148 87.9718C106.691 87.6872 107.155 87.2737 107.5 86.7676C108.02 86.0368 108.264 85.1447 108.187 84.2509C108.11 83.357 107.718 82.5197 107.08 81.8886L81.74 56.5276L76.3276 61.94L101.687 87.28Z" fill="#1E277D"/>
<path d="M36.1097 94.84L43.1097 98.802C43.3205 98.9203 43.5582 98.9825 43.7999 98.9825C44.0417 98.9825 44.2793 98.9203 44.4901 98.802L51.4901 94.84C51.7056 94.7179 51.8848 94.5408 52.0095 94.3268C52.1342 94.1128 52.1999 93.8696 52.1999 93.622V85.9836C52.1999 85.7359 52.1342 85.4927 52.0095 85.2787C51.8848 85.0647 51.7056 84.8877 51.4901 84.7656L44.4901 80.8036C44.2793 80.6852 44.0417 80.623 43.7999 80.623C43.5582 80.623 43.3205 80.6852 43.1097 80.8036L36.1097 84.7656C35.8942 84.8877 35.715 85.0647 35.5903 85.2787C35.4656 85.4927 35.3999 85.7359 35.3999 85.9836V93.6164C35.3989 93.865 35.4642 94.1094 35.5889 94.3244C35.7137 94.5394 35.8934 94.7174 36.1097 94.84Z" fill="#1E277D"/>
<path d="M29.8001 95.316C29.7975 96.0699 29.9938 96.8112 30.3691 97.465C30.7444 98.1188 31.2855 98.6621 31.9379 99.04L41.7379 104.653C42.3661 105.011 43.0768 105.2 43.8001 105.2C44.5233 105.2 45.2341 105.011 45.8623 104.653L55.6623 99.0386C56.3144 98.6608 56.8554 98.1177 57.2307 97.4642C57.606 96.8106 57.8024 96.0697 57.8001 95.316V84.284C57.8027 83.5301 57.6064 82.7889 57.2311 82.135C56.8557 81.4812 56.3146 80.9379 55.6623 80.56L45.8623 74.9474C45.2341 74.5891 44.5233 74.4006 43.8001 74.4006C43.0768 74.4006 42.3661 74.5891 41.7379 74.9474L31.9379 80.5614C31.2858 80.9392 30.7448 81.4823 30.3694 82.1358C29.9941 82.7894 29.7977 83.5304 29.8001 84.284V95.316ZM32.6001 85.9836C32.6002 85.2405 32.7976 84.5107 33.1719 83.8688C33.5462 83.2269 34.0842 82.6957 34.7309 82.3296L41.7309 78.3676C42.3627 78.0124 43.0753 77.8259 43.8001 77.8259C44.5249 77.8259 45.2375 78.0124 45.8693 78.3676L52.8693 82.3296C53.516 82.6957 54.0539 83.2269 54.4283 83.8688C54.8026 84.5107 54.9999 85.2405 55.0001 85.9836V93.6164C54.9999 94.3595 54.8026 95.0893 54.4283 95.7312C54.0539 96.3732 53.516 96.9043 52.8693 97.2704L45.8693 101.232C45.2375 101.588 44.5249 101.774 43.8001 101.774C43.0753 101.774 42.3627 101.588 41.7309 101.232L34.7309 97.2704C34.0842 96.9043 33.5462 96.3732 33.1719 95.7312C32.7976 95.0893 32.6002 94.3595 32.6001 93.6164V85.9836Z" fill="#1E277D"/>
<defs>
<filter id="filter0_di_132_131" x="0" y="0" width="138" height="138" filterUnits="userSpaceOnUse" color-interpolation-filters="sRGB">
<feFlood flood-opacity="0" result="BackgroundImageFix"/>
<feColorMatrix in="SourceAlpha" type="matrix" values="0 0 0 0 0 0 0 0 0 0 0 0 0 0 0 0 0 0 127 0" result="hardAlpha"/>
<feMorphology radius="1" operator="dilate" in="SourceAlpha" result="effect1_dropShadow_132_131"/>
<feOffset dy="3"/>
<feGaussianBlur stdDeviation="4"/>
<feComposite in2="hardAlpha" operator="out"/>
<feColorMatrix type="matrix" values="0 0 0 0 0 0 0 0 0 0 0 0 0 0 0 0 0 0 0.15 0"/>
<feBlend mode="normal" in2="BackgroundImageFix" result="effect1_dropShadow_132_131"/>
<feBlend mode="normal" in="SourceGraphic" in2="effect1_dropShadow_132_131" result="shape"/>
<feColorMatrix in="SourceAlpha" type="matrix" values="0 0 0 0 0 0 0 0 0 0 0 0 0 0 0 0 0 0 127 0" result="hardAlpha"/>
<feMorphology radius="1" operator="erode" in="SourceAlpha" result="effect2_innerShadow_132_131"/>
<feOffset dy="1"/>
<feGaussianBlur stdDeviation="3"/>
<feComposite in2="hardAlpha" operator="arithmetic" k2="-1" k3="1"/>
<feColorMatrix type="matrix" values="0 0 0 0 0 0 0 0 0 0 0 0 0 0 0 0 0 0 0.45 0"/>
<feBlend mode="normal" in2="shape" result="effect2_innerShadow_132_131"/>
</filter>
</defs>
</svg>
