<svg width="138" height="138" viewBox="0 0 138 138" fill="none" xmlns="http://www.w3.org/2000/svg">
<g filter="url(#filter0_di_132_132)">
<rect x="9" y="6" width="120" height="120" rx="20" fill="#E8E9F2"/>
<rect x="10.5" y="7.5" width="117" height="117" rx="18.5" stroke="white" stroke-width="3"/>
</g>
<g clip-path="url(#clip0_132_132)">
<path d="M28.9815 40.695H47.1941C48.0323 40.695 48.7118 40.0154 48.7118 39.1773C48.7118 38.3391 48.0322 37.6597 47.1941 37.6597H28.9815C28.1433 37.6597 27.4639 38.3392 27.4639 39.1773C27.4639 40.0154 28.1433 40.695 28.9815 40.695Z" fill="#1E277D"/>
<path d="M30.4993 25.5176V34.624H33.5347V25.5176C33.5347 24.6796 32.8553 24 32.0171 24C31.1788 24 30.4993 24.6796 30.4993 25.5176Z" fill="#1E277D"/>
<path d="M100.314 49.8013H97.2789C96.4406 49.8013 95.7612 50.4808 95.7612 51.3189V54.8097L101.832 59.5313V51.3189C101.832 50.4807 101.153 49.8013 100.314 49.8013Z" fill="#1E277D"/>
<path d="M42.6411 25.5176V34.624H45.6766V25.5176C45.6766 24.6794 44.997 24 44.1589 24C43.3209 24 42.6411 24.6796 42.6411 25.5176Z" fill="#1E277D"/>
<path d="M38.088 58.9076C42.277 58.9025 45.6717 55.508 45.6766 51.319V43.7305H30.4993V51.319C30.5043 55.508 33.899 58.9027 38.088 58.9076Z" fill="#1E277D"/>
<path d="M51.7474 102.922H53.2651V99.8863H51.7474C45.0448 99.8787 39.6132 94.4471 39.6056 87.7444V61.8218C39.1033 61.8983 38.596 61.9389 38.088 61.9433C37.5799 61.939 37.0726 61.8985 36.5703 61.8218V87.7444C36.5794 96.1227 43.3691 102.912 51.7474 102.922Z" fill="#1E277D"/>
<path d="M104.868 74.6691L80.5841 55.7827L56.3005 74.6691V108.211C56.3005 108.647 56.6538 109 57.0898 109H104.079C104.514 109 104.868 108.647 104.868 108.211V74.6691ZM90.5147 89.0648L78.6764 102.081C77.9352 102.906 76.7426 103.152 75.7351 102.688C74.7054 102.216 74.1019 101.13 74.2446 100.006L75.7275 87.7445H72.5266C71.5088 87.7493 70.5869 87.1442 70.1863 86.2086C69.7667 85.2614 69.9452 84.1559 70.6416 83.3888L82.4798 70.3727C83.2221 69.548 84.4147 69.302 85.4227 69.7656C86.4521 70.2377 87.0553 71.3241 86.9116 72.4474L85.4318 84.7091H88.6282C89.6462 84.704 90.5682 85.3091 90.9685 86.245C91.3892 87.1917 91.2111 88.2977 90.5147 89.0648Z" fill="#1E277D"/>
<path d="M80.5841 52.342C80.9217 52.3421 81.2496 52.4548 81.5159 52.6621L108.273 73.4777C108.838 73.9322 109.603 74.0471 110.276 73.7782C110.948 73.5092 111.424 72.8983 111.519 72.1802C111.614 71.4621 111.314 70.7482 110.735 70.3133L81.815 47.8147C81.091 47.2515 80.0772 47.2515 79.3532 47.8147L50.4331 70.3089C49.558 70.9886 49.3997 72.2491 50.0794 73.1242C50.7592 73.9992 52.0197 74.1576 52.8947 73.4778L79.6522 52.6669C79.918 52.4577 80.246 52.3435 80.5841 52.342Z" fill="#1E277D"/>
<path d="M82.5829 87.2328C82.2948 86.9075 82.1599 86.4743 82.2125 86.0429L83.7301 73.5142L73.5432 84.709H77.4377C77.8721 84.7093 78.2854 84.8957 78.5733 85.2209C78.8612 85.5462 78.9959 85.9792 78.9433 86.4104L77.4257 98.9392L87.6126 87.7444H83.7181C83.2841 87.7441 82.8708 87.5579 82.5829 87.2328Z" fill="#1E277D"/>
</g>
<defs>
<filter id="filter0_di_132_132" x="0" y="0" width="138" height="138" filterUnits="userSpaceOnUse" color-interpolation-filters="sRGB">
<feFlood flood-opacity="0" result="BackgroundImageFix"/>
<feColorMatrix in="SourceAlpha" type="matrix" values="0 0 0 0 0 0 0 0 0 0 0 0 0 0 0 0 0 0 127 0" result="hardAlpha"/>
<feMorphology radius="1" operator="dilate" in="SourceAlpha" result="effect1_dropShadow_132_132"/>
<feOffset dy="3"/>
<feGaussianBlur stdDeviation="4"/>
<feComposite in2="hardAlpha" operator="out"/>
<feColorMatrix type="matrix" values="0 0 0 0 0 0 0 0 0 0 0 0 0 0 0 0 0 0 0.15 0"/>
<feBlend mode="normal" in2="BackgroundImageFix" result="effect1_dropShadow_132_132"/>
<feBlend mode="normal" in="SourceGraphic" in2="effect1_dropShadow_132_132" result="shape"/>
<feColorMatrix in="SourceAlpha" type="matrix" values="0 0 0 0 0 0 0 0 0 0 0 0 0 0 0 0 0 0 127 0" result="hardAlpha"/>
<feMorphology radius="1" operator="erode" in="SourceAlpha" result="effect2_innerShadow_132_132"/>
<feOffset dy="1"/>
<feGaussianBlur stdDeviation="3"/>
<feComposite in2="hardAlpha" operator="arithmetic" k2="-1" k3="1"/>
<feColorMatrix type="matrix" values="0 0 0 0 0 0 0 0 0 0 0 0 0 0 0 0 0 0 0.45 0"/>
<feBlend mode="normal" in2="shape" result="effect2_innerShadow_132_132"/>
</filter>
<clipPath id="clip0_132_132">
<rect width="85" height="85" fill="white" transform="translate(27 24)"/>
</clipPath>
</defs>
</svg>
