<svg width="120" height="120" viewBox="0 0 120 120" fill="none" xmlns="http://www.w3.org/2000/svg">
<rect x="1.5" y="1.5" width="117" height="117" rx="18.5" fill="#1E277D" fill-opacity="0.1" stroke="#1E277D" stroke-width="3" stroke-dasharray="5 5"/>
<path fill-rule="evenodd" clip-rule="evenodd" d="M31.0608 65.0469C30.8259 63.5646 30.7031 62.0459 30.7031 60.5C30.7031 44.6072 43.6072 31.7031 59.5 31.7031C62.0129 31.7031 64.45 32.026 66.7765 32.6322L59.5 39.9087V49.2632L63.6028 53.366C63.8877 53.6494 64.0469 54.0359 64.0469 54.4375V62.0156C64.0469 62.8522 63.3679 63.5312 62.5313 63.5312H54.9531C54.5515 63.5312 54.165 63.3721 53.8816 63.0872L50.4063 59.6118L45.4153 64.6028C45.1319 64.8877 44.7454 65.0469 44.3438 65.0469H31.0608Z" fill="#1E277D"/>
<path fill-rule="evenodd" clip-rule="evenodd" d="M80.1292 82.7024C74.7169 87.7343 67.4646 90.8125 59.5 90.8125C42.7705 90.8125 29.1875 77.2295 29.1875 60.5C29.1875 43.7705 42.7705 30.1875 59.5 30.1875C71.9888 30.1875 82.7239 37.7565 87.3633 48.5538C86.3341 48.7054 85.3338 48.9525 84.3729 49.2844C80.0928 39.8148 70.561 33.2188 59.5 33.2188C44.4438 33.2188 32.2188 45.4438 32.2188 60.5C32.2188 75.0485 43.6314 86.9522 57.9844 87.7403V69.5938C57.9844 68.7571 58.6634 68.0781 59.5 68.0781H64.935L69.0378 63.9753C69.3213 63.6904 69.7077 63.5312 70.1094 63.5312H73.2088C73.1634 64.0314 73.1406 64.5361 73.1406 65.0469C73.1406 67.7235 74.3289 71.514 76.2007 75.4486C77.3586 77.8782 78.7545 80.3911 80.1292 82.7024Z" fill="#1E277D"/>
<path fill-rule="evenodd" clip-rule="evenodd" d="M84.3546 93.0094C82.9612 94.0774 81.4901 95.0605 79.9694 95.9446C79.2409 96.3619 78.9933 97.2885 79.4177 98.017C79.835 98.7384 80.7615 98.986 81.483 98.5687C83.1239 97.6139 84.6941 96.5671 86.1935 95.4212C86.8584 94.912 86.9857 93.9572 86.4765 93.2923C85.9672 92.6274 85.0124 92.5072 84.3546 93.0094V93.0094Z" fill="#1E277D"/>
<path fill-rule="evenodd" clip-rule="evenodd" d="M32.8068 95.4212C34.3062 96.5671 35.8764 97.6139 37.5174 98.5687C38.2388 98.986 39.1653 98.7384 39.5826 98.017C40.007 97.2885 39.7595 96.3619 39.031 95.9446C37.5103 95.0605 36.0391 94.0774 34.6457 93.0094C33.988 92.5072 33.0331 92.6274 32.5239 93.2923C32.0146 93.9572 32.1419 94.912 32.8068 95.4212V95.4212Z" fill="#1E277D"/>
<path fill-rule="evenodd" clip-rule="evenodd" d="M68.2776 100.479C67.3157 100.691 66.3397 100.868 65.3565 101.009C64.529 101.129 63.949 101.893 64.0693 102.728C64.1895 103.555 64.9534 104.128 65.788 104.008C66.8418 103.859 67.8886 103.668 68.9213 103.442C69.7417 103.265 70.2581 102.452 70.0812 101.638C69.9044 100.818 69.091 100.302 68.2776 100.479V100.479Z" fill="#1E277D"/>
<path fill-rule="evenodd" clip-rule="evenodd" d="M53.6581 101.009C52.6749 100.868 51.6989 100.691 50.737 100.479C49.9236 100.302 49.1102 100.818 48.9334 101.638C48.7565 102.452 49.2729 103.265 50.0933 103.442C51.126 103.668 52.1728 103.859 53.2266 104.008C54.0612 104.128 54.8251 103.555 54.9453 102.728C55.0656 101.893 54.4856 101.129 53.6581 101.009V101.009Z" fill="#1E277D"/>
<path fill-rule="evenodd" clip-rule="evenodd" d="M25.9251 83.8854C25.2673 82.9376 24.6449 81.9615 24.0649 80.9642C23.6476 80.2357 22.721 79.9882 21.9925 80.4126C21.2711 80.8299 21.0235 81.7564 21.4408 82.4779C22.0632 83.56 22.7352 84.6068 23.4425 85.6182C23.9234 86.3043 24.8641 86.4741 25.5502 85.9931C26.2363 85.5192 26.406 84.5714 25.9251 83.8854V83.8854Z" fill="#1E277D"/>
<path fill-rule="evenodd" clip-rule="evenodd" d="M23.4425 35.3821C22.7352 36.3935 22.0632 37.4403 21.4408 38.5225C21.0235 39.2439 21.2711 40.1705 21.9925 40.5878C22.721 41.0121 23.6476 40.7646 24.0649 40.0361C24.6449 39.0388 25.2673 38.0627 25.9251 37.115C26.406 36.4289 26.2363 35.4811 25.5502 35.0072C24.8641 34.5263 23.9234 34.696 23.4425 35.3821V35.3821Z" fill="#1E277D"/>
<path fill-rule="evenodd" clip-rule="evenodd" d="M19.5312 69.273C19.319 68.3111 19.1422 67.335 19.0007 66.3519C18.8805 65.5243 18.1166 64.9444 17.282 65.0646C16.4544 65.1848 15.8815 65.9487 16.0018 66.7833C16.1503 67.8372 16.3413 68.884 16.5676 69.9166C16.7444 70.7371 17.5578 71.2534 18.3712 71.0766C19.1917 70.8998 19.708 70.0864 19.5312 69.273Z" fill="#1E277D"/>
<path fill-rule="evenodd" clip-rule="evenodd" d="M19.0007 54.653C19.1422 53.6698 19.319 52.6938 19.5312 51.7318C19.708 50.9184 19.1917 50.1051 18.3712 49.9282C17.5578 49.7514 16.7444 50.2677 16.5676 51.0882C16.3413 52.1208 16.1503 53.1676 16.0018 54.2215C15.8815 55.0561 16.4544 55.82 17.282 55.9402C18.1166 56.0605 18.8805 55.4805 19.0007 54.653V54.653Z" fill="#1E277D"/>
<path fill-rule="evenodd" clip-rule="evenodd" d="M34.8138 28.2286L38.6049 24.4446L36.4618 22.2944L32.6707 26.0855C32.0766 26.6796 32.0766 27.6416 32.6707 28.2286C33.2648 28.8227 34.2197 28.8227 34.8138 28.2286V28.2286Z" fill="#1E277D"/>
<path fill-rule="evenodd" clip-rule="evenodd" d="M61.0156 102.938C61.0156 103.339 60.8559 103.725 60.5717 104.009C60.2875 104.293 59.902 104.453 59.5 104.453C59.098 104.453 58.7125 104.293 58.4283 104.009C58.1441 103.725 57.9844 103.339 57.9844 102.938C57.9844 102.536 58.1441 102.15 58.4283 101.866C58.7125 101.582 59.098 101.422 59.5 101.422C59.902 101.422 60.2875 101.582 60.5717 101.866C60.8559 102.15 61.0156 102.536 61.0156 102.938Z" fill="#1E277D"/>
<path fill-rule="evenodd" clip-rule="evenodd" d="M45.8594 99.9062C45.8594 100.308 45.6997 100.694 45.4155 100.978C45.1312 101.262 44.7457 101.422 44.3438 101.422C43.9418 101.422 43.5563 101.262 43.272 100.978C42.9878 100.694 42.8281 100.308 42.8281 99.9062C42.8281 99.5043 42.9878 99.1188 43.272 98.8345C43.5563 98.5503 43.9418 98.3906 44.3438 98.3906C44.7457 98.3906 45.1312 98.5503 45.4155 98.8345C45.6997 99.1188 45.8594 99.5043 45.8594 99.9062Z" fill="#1E277D"/>
<path fill-rule="evenodd" clip-rule="evenodd" d="M18.5781 60.5C18.5781 60.902 18.4184 61.2875 18.1342 61.5717C17.85 61.8559 17.4645 62.0156 17.0625 62.0156C16.6605 62.0156 16.275 61.8559 15.9908 61.5717C15.7066 61.2875 15.5469 60.902 15.5469 60.5C15.5469 60.098 15.7066 59.7125 15.9908 59.4283C16.275 59.1441 16.6605 58.9844 17.0625 58.9844C17.4645 58.9844 17.85 59.1441 18.1342 59.4283C18.4184 59.7125 18.5781 60.098 18.5781 60.5Z" fill="#1E277D"/>
<path fill-rule="evenodd" clip-rule="evenodd" d="M21.6094 75.6562C21.6094 76.0582 21.4497 76.4437 21.1655 76.728C20.8812 77.0122 20.4957 77.1719 20.0938 77.1719C19.6918 77.1719 19.3063 77.0122 19.022 76.728C18.7378 76.4437 18.5781 76.0582 18.5781 75.6562C18.5781 75.2543 18.7378 74.8688 19.022 74.5845C19.3063 74.3003 19.6918 74.1406 20.0938 74.1406C20.4957 74.1406 20.8812 74.3003 21.1655 74.5845C21.4497 74.8688 21.6094 75.2543 21.6094 75.6562Z" fill="#1E277D"/>
<path fill-rule="evenodd" clip-rule="evenodd" d="M21.6094 45.3438C21.6094 45.7457 21.4497 46.1312 21.1655 46.4155C20.8812 46.6997 20.4957 46.8594 20.0938 46.8594C19.6918 46.8594 19.3063 46.6997 19.022 46.4155C18.7378 46.1312 18.5781 45.7457 18.5781 45.3438C18.5781 44.9418 18.7378 44.5563 19.022 44.272C19.3063 43.9878 19.6918 43.8281 20.0938 43.8281C20.4957 43.8281 20.8812 43.9878 21.1655 44.272C21.4497 44.5563 21.6094 44.9418 21.6094 45.3438Z" fill="#1E277D"/>
<path fill-rule="evenodd" clip-rule="evenodd" d="M29.9453 89.2969C29.9453 89.6988 29.7856 90.0844 29.5014 90.3686C29.2172 90.6528 28.8317 90.8125 28.4297 90.8125C28.0277 90.8125 27.6422 90.6528 27.358 90.3686C27.0737 90.0844 26.9141 89.6988 26.9141 89.2969C26.9141 88.8949 27.0737 88.5094 27.358 88.2252C27.6422 87.9409 28.0277 87.7812 28.4297 87.7812C28.8317 87.7812 29.2172 87.9409 29.5014 88.2252C29.7856 88.5094 29.9453 88.8949 29.9453 89.2969Z" fill="#1E277D"/>
<path fill-rule="evenodd" clip-rule="evenodd" d="M29.9453 31.7031C29.9453 32.1051 29.7856 32.4906 29.5014 32.7748C29.2172 33.0591 28.8317 33.2188 28.4297 33.2188C28.0277 33.2188 27.6422 33.0591 27.358 32.7748C27.0737 32.4906 26.9141 32.1051 26.9141 31.7031C26.9141 31.3012 27.0737 30.9157 27.358 30.6314C27.6422 30.3472 28.0277 30.1875 28.4297 30.1875C28.8317 30.1875 29.2172 30.3472 29.5014 30.6314C29.7856 30.9157 29.9453 31.3012 29.9453 31.7031Z" fill="#1E277D"/>
<path fill-rule="evenodd" clip-rule="evenodd" d="M76.1719 99.9062C76.1719 100.308 76.0122 100.694 75.728 100.978C75.4437 101.262 75.0582 101.422 74.6562 101.422C74.2543 101.422 73.8688 101.262 73.5845 100.978C73.3003 100.694 73.1406 100.308 73.1406 99.9062C73.1406 99.5043 73.3003 99.1188 73.5845 98.8345C73.8688 98.5503 74.2543 98.3906 74.6562 98.3906C75.0582 98.3906 75.4437 98.5503 75.728 98.8345C76.0122 99.1188 76.1719 99.5043 76.1719 99.9062Z" fill="#1E277D"/>
<path fill-rule="evenodd" clip-rule="evenodd" d="M32.2198 16.5469C31.6058 16.5469 31.0542 16.9167 30.8193 17.482C30.5845 18.0489 30.7147 18.7006 31.1475 19.134L41.7569 29.7434C42.1898 30.1769 42.8419 30.3072 43.4091 30.0723C43.975 29.8374 44.3442 29.2842 44.3442 28.6719V18.0625C44.3442 17.2259 43.6652 16.5469 42.8291 16.5469H32.2198Z" fill="#1E277D"/>
<path fill-rule="evenodd" clip-rule="evenodd" d="M88.5788 90.1775C88.8637 90.5761 89.323 90.8125 89.8125 90.8125C90.302 90.8125 90.7613 90.5761 91.0462 90.1775C91.0462 90.1775 97.0708 81.7385 100.687 74.1452C102.33 70.6941 103.453 67.3931 103.453 65.0469C103.453 57.5188 97.3406 51.4062 89.8125 51.4062C82.2844 51.4062 76.1719 57.5188 76.1719 65.0469C76.1719 67.3931 77.295 70.6941 78.9379 74.1452C82.5542 81.7385 88.5788 90.1775 88.5788 90.1775ZM89.8125 58.9844C86.466 58.9844 83.75 61.7004 83.75 65.0469C83.75 68.3934 86.466 71.1094 89.8125 71.1094C93.159 71.1094 95.875 68.3934 95.875 65.0469C95.875 61.7004 93.159 58.9844 89.8125 58.9844V58.9844ZM89.8125 62.0156C91.4857 62.0156 92.8438 63.3736 92.8438 65.0469C92.8438 66.7201 91.4857 68.0781 89.8125 68.0781C88.1393 68.0781 86.7812 66.7201 86.7812 65.0469C86.7812 63.3736 88.1393 62.0156 89.8125 62.0156Z" fill="#1E277D"/>
</svg>
