<svg width="138" height="138" viewBox="0 0 138 138" fill="none" xmlns="http://www.w3.org/2000/svg">
<g filter="url(#filter0_di_132_134)">
<rect x="9" y="6" width="120" height="120" rx="20" fill="#E8E9F2"/>
<rect x="10.5" y="7.5" width="117" height="117" rx="18.5" stroke="white" stroke-width="3"/>
</g>
<path d="M65.6322 37.8633L63.5554 39.918L69.0001 45.3047L74.4447 39.918L72.3679 37.8633L70.4688 39.7422V29.9045C72.177 29.3044 73.4063 27.7074 73.4063 25.8125C73.4063 23.4047 71.4338 21.4531 69.0001 21.4531C66.5664 21.4531 64.5938 23.4047 64.5938 25.8125C64.5938 27.7074 65.8232 29.3044 67.5313 29.9045V39.7422L65.6322 37.8633Z" fill="#1E277D"/>
<path d="M72.3679 95.1368L74.4447 93.082L69.0001 87.6953L63.5554 93.082L65.6322 95.1368L67.5313 93.2579V103.096C65.8232 103.696 64.5938 105.293 64.5938 107.188C64.5938 109.595 66.5664 111.547 69.0001 111.547C71.4338 111.547 73.4063 109.595 73.4063 107.188C73.4063 105.293 72.177 103.696 70.4688 103.096V93.2579L72.3679 95.1368Z" fill="#1E277D"/>
<path d="M41.9544 67.9531L40.0553 69.832L42.1322 71.8868L47.5768 66.5L42.1322 61.1133L40.0553 63.168L41.9544 65.0469H32.011C31.4044 63.3569 29.7902 62.1406 27.875 62.1406C25.4413 62.1406 23.4688 64.0922 23.4688 66.5C23.4688 68.9078 25.4413 70.8594 27.875 70.8594C29.7902 70.8594 31.4044 69.6431 32.011 67.9531H41.9544Z" fill="#1E277D"/>
<path d="M91.8493 48.6076H89.163L96.1939 41.6515C97.8301 42.4216 99.8408 42.1528 101.196 40.813C102.918 39.11 102.918 36.3505 101.196 34.6474C99.4751 32.9444 96.6859 32.9444 94.9646 34.6474C93.6104 35.9872 93.3387 37.978 94.1171 39.5968L87.0862 46.5529V43.8951H84.1487V51.5138H91.8493V48.6076Z" fill="#1E277D"/>
<path d="M46.1506 84.3921H48.8369L41.806 91.3482C40.1699 90.578 38.1591 90.8469 36.8035 92.1867C35.0821 93.8897 35.0821 96.6492 36.8035 98.3523C38.5249 100.055 41.314 100.055 43.0354 98.3523C44.3896 97.0125 44.6613 95.0232 43.8829 93.4029L50.9138 86.4468V89.1046H53.8513V81.4858H46.1506V84.3921Z" fill="#1E277D"/>
<path d="M110.125 62.1406C108.21 62.1406 106.596 63.3569 105.989 65.0469H96.0455L97.9446 63.168L95.8678 61.1133L90.4231 66.5L95.8678 71.8868L97.9446 69.832L96.0455 67.9531H105.989C106.596 69.6431 108.21 70.8594 110.125 70.8594C112.559 70.8594 114.531 68.9078 114.531 66.5C114.531 64.0922 112.559 62.1406 110.125 62.1406Z" fill="#1E277D"/>
<path d="M96.1939 91.3497L89.163 84.3936H91.8493V81.4873H84.1487V89.106H87.0862V86.4483L94.1171 93.4044C93.3387 95.0232 93.6104 97.0125 94.9646 98.3537C96.6859 100.057 99.4751 100.057 101.196 98.3537C102.918 96.6507 102.918 93.8912 101.196 92.1881C99.8408 90.8469 97.8301 90.5795 96.1939 91.3497Z" fill="#1E277D"/>
<path d="M41.806 41.65L48.8369 48.6061H46.1506V51.5124H53.8513V43.8936H50.9138V46.5514L43.8829 39.5953C44.6613 37.9765 44.3896 35.9872 43.0354 34.6459C41.314 32.9429 38.5249 32.9429 36.8035 34.6459C35.0821 36.349 35.0821 39.1085 36.8035 40.8116C38.1591 42.1528 40.1699 42.4202 41.806 41.65Z" fill="#1E277D"/>
<path d="M69 46.1562C57.6436 46.1562 48.4375 55.2644 48.4375 66.5C48.4375 77.7356 57.6436 86.8438 69 86.8438C80.3564 86.8438 89.5625 77.7356 89.5625 66.5C89.5625 55.2644 80.3564 46.1562 69 46.1562ZM76.3438 80.7261V75.8145L80.75 71.4552V66.0975C81.6239 65.5947 82.2188 64.6676 82.2188 63.5938C82.2188 61.988 80.9042 60.6875 79.2812 60.6875C77.6583 60.6875 76.3438 61.988 76.3438 63.5938C76.3438 64.6662 76.9386 65.5933 77.8125 66.0975V70.2636L73.4062 74.623V81.8668C72.4589 82.1327 71.4792 82.3202 70.4688 82.4103V61.7381C71.3427 61.2353 71.9375 60.3082 71.9375 59.2344C71.9375 57.6287 70.623 56.3281 69 56.3281C67.377 56.3281 66.0625 57.6287 66.0625 59.2344C66.0625 60.3068 66.6573 61.2339 67.5312 61.7381V82.4117C66.5208 82.3216 65.5411 82.1327 64.5938 81.8683V74.623L60.1875 70.2636V66.0975C61.0614 65.5947 61.6562 64.6676 61.6562 63.5938C61.6562 61.988 60.3417 60.6875 58.7188 60.6875C57.0958 60.6875 55.7812 61.988 55.7812 63.5938C55.7812 64.6662 56.3761 65.5933 57.25 66.0975V71.4552L61.6562 75.8145V80.7261C56.429 78.0785 52.8438 72.7092 52.8438 66.5C52.8438 57.6723 60.0773 50.5156 69 50.5156C77.9227 50.5156 85.1562 57.6723 85.1562 66.5C85.1562 72.7092 81.571 78.0785 76.3438 80.7261Z" fill="#1E277D"/>
<defs>
<filter id="filter0_di_132_134" x="0" y="0" width="138" height="138" filterUnits="userSpaceOnUse" color-interpolation-filters="sRGB">
<feFlood flood-opacity="0" result="BackgroundImageFix"/>
<feColorMatrix in="SourceAlpha" type="matrix" values="0 0 0 0 0 0 0 0 0 0 0 0 0 0 0 0 0 0 127 0" result="hardAlpha"/>
<feMorphology radius="1" operator="dilate" in="SourceAlpha" result="effect1_dropShadow_132_134"/>
<feOffset dy="3"/>
<feGaussianBlur stdDeviation="4"/>
<feComposite in2="hardAlpha" operator="out"/>
<feColorMatrix type="matrix" values="0 0 0 0 0 0 0 0 0 0 0 0 0 0 0 0 0 0 0.15 0"/>
<feBlend mode="normal" in2="BackgroundImageFix" result="effect1_dropShadow_132_134"/>
<feBlend mode="normal" in="SourceGraphic" in2="effect1_dropShadow_132_134" result="shape"/>
<feColorMatrix in="SourceAlpha" type="matrix" values="0 0 0 0 0 0 0 0 0 0 0 0 0 0 0 0 0 0 127 0" result="hardAlpha"/>
<feMorphology radius="1" operator="erode" in="SourceAlpha" result="effect2_innerShadow_132_134"/>
<feOffset dy="1"/>
<feGaussianBlur stdDeviation="3"/>
<feComposite in2="hardAlpha" operator="arithmetic" k2="-1" k3="1"/>
<feColorMatrix type="matrix" values="0 0 0 0 0 0 0 0 0 0 0 0 0 0 0 0 0 0 0.45 0"/>
<feBlend mode="normal" in2="shape" result="effect2_innerShadow_132_134"/>
</filter>
</defs>
</svg>
