<svg width="120" height="120" viewBox="0 0 120 120" fill="none" xmlns="http://www.w3.org/2000/svg">
<rect x="1.5" y="1.5" width="117" height="117" rx="18.5" fill="#1E277D" fill-opacity="0.1" stroke="#1E277D" stroke-width="3" stroke-dasharray="5 5"/>
<g clip-path="url(#clip0_132_133)">
<path d="M76.4705 78.5249C76.4705 80.0911 75.9249 81.4193 74.8341 82.5093C73.7432 83.598 72.414 84.1428 70.8454 84.1428H67.0612L67.0096 95.7386C67.0096 97.2032 66.4983 98.4455 65.4758 99.4675C64.4534 100.489 63.2258 101 61.7942 101C60.3277 101 59.0838 100.489 58.0609 99.4675C57.038 98.4455 56.527 97.2032 56.527 95.7386V84.1428H49.4707V95.7386C49.4707 97.2032 48.9595 98.4455 47.9372 99.4675C46.9136 100.489 45.6693 101 44.2032 101C42.7382 101 41.494 100.489 40.4716 99.4675C39.4493 98.4455 38.9386 97.2032 38.9386 95.7386V84.1428H35.1029C33.5697 84.1428 32.2569 83.5991 31.1661 82.5093C30.075 81.4193 29.5294 80.0911 29.5294 78.5249V44.5034H76.4705V78.5249Z" fill="#1E277D"/>
<path d="M41.3922 23.8157L37.7626 17.1236C37.5235 16.6809 37.6094 16.3404 38.0176 16.1023C38.4614 15.8978 38.8021 15.9999 39.04 16.4089L42.7224 23.1515C45.961 21.7213 49.3861 21.0061 53.0003 21.0061C56.6136 21.0061 60.04 21.7213 63.2788 23.1515L66.9605 16.4091C67.1984 16.0001 67.5397 15.8979 67.9829 16.1025C68.3921 16.3406 68.4768 16.6811 68.2383 17.1237L64.6076 23.8157C68.2898 25.6885 71.2208 28.3023 73.4032 31.6567C75.5849 35.0113 76.676 38.6809 76.676 42.6647H29.3746C29.3746 38.6809 30.4655 35.0111 32.6474 31.6567C34.8302 28.3023 37.7434 25.6883 41.3922 23.8157ZM62.3838 33.5464C62.7755 33.9383 63.244 34.134 63.7896 34.134C64.3352 34.134 64.7951 33.9385 65.1705 33.5464C65.545 33.1551 65.7329 32.6867 65.7329 32.1419C65.7329 31.5969 65.545 31.1285 65.1705 30.7367C64.7956 30.3448 64.335 30.1495 63.7896 30.1495C63.2447 30.1495 62.776 30.3447 62.3838 30.7367C61.9915 31.1285 61.7956 31.5969 61.7956 32.1419C61.7956 32.6869 61.9915 33.1546 62.3838 33.5464ZM40.8291 33.5464C41.2048 33.9383 41.6651 34.134 42.2105 34.134C42.7561 34.134 43.2237 33.9385 43.6162 33.5464C44.0084 33.1551 44.2038 32.6867 44.2038 32.1419C44.2038 31.5969 44.0084 31.1285 43.6162 30.7367C43.2239 30.3448 42.7561 30.1495 42.2105 30.1495C41.6651 30.1495 41.2048 30.3447 40.8291 30.7367C40.4551 31.1285 40.2669 31.5969 40.2669 32.1419C40.2669 32.6869 40.4546 33.1546 40.8291 33.5464Z" fill="#1E277D"/>
<path d="M18.5347 45.0401C19.557 44.0356 20.8013 43.5332 22.2675 43.5332C23.6987 43.5332 24.926 44.0356 25.9483 45.0401C26.9712 46.0449 27.4829 47.2796 27.4829 48.7435V70.7099C27.4829 72.1733 26.9712 73.4163 25.9483 74.4381C24.926 75.4601 23.6987 75.97 22.2675 75.97C20.8013 75.97 19.557 75.4599 18.5347 74.4381C17.5111 73.4163 17.0001 72.1733 17.0001 70.7099V48.7435C17.0001 47.2794 17.5111 46.0447 18.5347 45.0401Z" fill="#1E277D"/>
</g>
<g clip-path="url(#clip1_132_133)">
<path d="M65.5 101C87.3153 101 105 83.3153 105 61.5C105 39.6848 87.3153 22 65.5 22C43.6848 22 26 39.6848 26 61.5C26 83.3153 43.6848 101 65.5 101Z" fill="#1E277D"/>
<path d="M64.4181 43.5664L74.7577 53.8688L50.9006 84.1754L68.5377 100.885C88.9336 99.3339 105 82.2932 105 61.5002C105 60.9906 104.987 60.4838 104.968 59.9788L75.6127 30.6235L64.4181 43.5664Z" fill="#1E277D"/>
<path d="M55.4996 86.7327C53.9153 86.6708 51.5486 84.9435 50.5234 83.7812C47.9001 80.8066 45.763 77.5107 44.2517 73.838C42.5313 69.6574 41.5051 65.3219 41.5571 60.7704C41.5944 57.4965 42.2335 54.3564 43.8724 51.4987C45.8988 47.9655 48.8905 45.6417 52.8888 44.7024C54.4797 44.3287 56.1015 44.1787 57.6916 44.6492C59.2813 45.1195 60.8477 45.6746 62.4075 46.2389C63.759 46.7278 65.0853 47.0816 66.5042 46.4668C67.4365 46.0627 68.4061 45.7445 69.3609 45.3932C70.9247 44.8176 72.5053 44.2841 74.1888 44.2339C77.445 44.1367 80.4487 44.9354 83.0984 46.8846C84.1911 47.6885 85.1097 48.6652 85.8717 49.8095C85.767 49.8885 85.6867 49.9539 85.6017 50.0124C84.4605 50.797 83.4499 51.7231 82.5757 52.7979C80.255 55.6507 79.4496 58.9071 79.9974 62.5183C80.3795 65.0379 81.4653 67.2131 83.2367 69.0464C84.3192 70.1669 86.1368 71.339 87.5357 72.0182C87.2919 72.5962 86.8139 73.5289 86.5817 74.1123C85.5908 76.6023 84.2572 78.9009 82.688 81.0688C81.5721 82.6104 80.4491 84.139 78.9245 85.3227C77.5295 86.4059 75.9855 86.9473 74.2063 86.8237C72.8509 86.7296 71.5964 86.3062 70.382 85.7441C67.7286 84.5156 65.0051 84.2704 62.2063 85.1465C61.5083 85.365 60.8497 85.7079 60.1537 85.9341C59.0486 86.2931 56.6609 86.7781 55.4996 86.7327Z" fill="white"/>
<path d="M83.2364 69.0464C81.4651 67.2129 80.3793 65.0379 79.9973 62.5183C79.4495 58.9071 80.2549 55.6507 82.5756 52.7979C83.4498 51.723 84.4604 50.7969 85.6016 50.0123C85.6866 49.9539 85.7667 49.8884 85.8715 49.8094C85.1094 48.6652 84.1909 47.6885 83.0982 46.8846C80.4484 44.9355 77.4446 44.1369 74.1886 44.2339C72.5052 44.2842 70.9244 44.8176 69.3606 45.3932C68.4059 45.7445 67.4361 46.0628 66.504 46.4668C65.8115 46.7669 65.1412 46.8352 64.479 46.7707V84.6801C66.4849 84.4803 68.452 84.8507 70.3818 85.7441C71.5961 86.3064 72.8508 86.7296 74.206 86.8237C75.9854 86.9473 77.5294 86.4057 78.9243 85.3227C80.4489 84.1389 81.5719 82.6103 82.6877 81.0688C84.2569 78.9009 85.5905 76.6023 86.5814 74.1123C86.8135 73.529 87.2916 72.5963 87.5354 72.0182C86.1366 71.3389 84.319 70.1669 83.2364 69.0464Z" fill="#CCCCCC"/>
<path d="M75.6129 30.6235C75.6061 31.5165 75.7079 32.4262 75.5729 33.2992C75.0722 36.5351 73.5532 39.2341 70.9957 41.2904C69.1 42.8145 66.9545 43.7241 64.4183 43.5664C64.2742 42.5891 64.3063 41.6193 64.5169 40.67C65.2702 37.2747 67.0762 34.5717 69.9764 32.6425C71.4732 31.6468 73.1157 30.9672 74.9117 30.7048C74.9977 30.6922 75.463 30.6235 75.6129 30.6235Z" fill="#CCCCCC"/>
</g>
<defs>
<clipPath id="clip0_132_133">
<rect width="50" height="99" fill="white" transform="matrix(-1 0 0 1 56 9)"/>
</clipPath>
<clipPath id="clip1_132_133">
<rect width="49" height="97" fill="white" transform="translate(65 11)"/>
</clipPath>
</defs>
</svg>
