<svg width="120" height="120" viewBox="0 0 120 120" fill="none" xmlns="http://www.w3.org/2000/svg">
<rect x="1.5" y="1.5" width="117" height="117" rx="18.5" fill="#1E277D" fill-opacity="0.1" stroke="#1E277D" stroke-width="3" stroke-dasharray="5 5"/>
<path d="M79.0906 53.5938H95.875V92.0313C95.875 93.0507 95.47 94.0284 94.7492 94.7492C94.0283 95.47 93.0507 95.875 92.0312 95.875H27.9688C26.9493 95.875 25.9717 95.47 25.2508 94.7492C24.53 94.0284 24.125 93.0507 24.125 92.0313V53.5938H40.9094C39.5854 55.0925 38.563 56.8326 37.8984 58.7188H30.5312C30.1914 58.7188 29.8656 58.8537 29.6253 59.094C29.385 59.3343 29.25 59.6602 29.25 60V89.4688C29.25 89.8086 29.385 90.1345 29.6253 90.3747C29.8656 90.615 30.1914 90.75 30.5312 90.75H37.04C36.8536 89.6473 36.9101 88.5171 37.2054 87.4384C37.5008 86.3598 38.028 85.3585 38.7502 84.5046C39.4724 83.6506 40.3722 82.9645 41.3869 82.4942C42.4015 82.0238 43.5066 81.7805 44.625 81.7813C45.6135 81.7799 46.5927 81.9714 47.5078 82.345C48.4602 81.3523 49.6043 80.5633 50.8706 80.026C52.137 79.4886 53.4993 79.214 54.875 79.2188C55.3032 79.2184 55.7311 79.2441 56.1562 79.2956V74.0938H63.8438V79.2956C64.2689 79.2441 64.6968 79.2184 65.125 79.2188C66.5007 79.214 67.863 79.4886 69.1294 80.026C70.3957 80.5633 71.5398 81.3523 72.4922 82.345C73.4073 81.9714 74.3865 81.7799 75.375 81.7813C76.4934 81.7805 77.5985 82.0238 78.6131 82.4942C79.6278 82.9645 80.5276 83.6506 81.2498 84.5046C81.972 85.3585 82.4992 86.3598 82.7946 87.4384C83.0899 88.5171 83.1464 89.6473 82.96 90.75H89.4688C89.8086 90.75 90.1345 90.615 90.3747 90.3747C90.615 90.1345 90.75 89.8086 90.75 89.4688V60C90.75 59.6602 90.615 59.3343 90.3747 59.094C90.1345 58.8537 89.8086 58.7188 89.4688 58.7188H82.1016C81.437 56.8326 80.4147 55.0925 79.0906 53.5938V53.5938ZM48.4688 66.4063V35.6563C48.4688 32.8759 50.365 30.0828 54.1191 27.3666C55.8064 26.1653 57.5989 25.1189 59.4747 24.2403C59.6399 24.1661 59.8189 24.1277 60 24.1277C60.1811 24.1277 60.3601 24.1661 60.5253 24.2403C62.3978 25.1174 64.1862 26.1639 65.8681 27.3666C69.635 30.0828 71.5312 32.8759 71.5312 35.6563V66.4063C71.5312 66.7461 71.3963 67.072 71.156 67.3122C70.9157 67.5525 70.5898 67.6875 70.25 67.6875H67.4056L66.4062 71.8388C66.3361 72.123 66.1707 72.3747 65.9376 72.5519C65.7045 72.7291 65.4177 72.821 65.125 72.8125H54.875C54.5823 72.821 54.2955 72.7291 54.0624 72.5519C53.8293 72.3747 53.6639 72.123 53.5938 71.8388L52.5944 67.6875H49.75C49.4102 67.6875 49.0843 67.5525 48.844 67.3122C48.6037 67.072 48.4688 66.7461 48.4688 66.4063ZM68.9688 36.9375H51.0312V65.125H68.9688V36.9375ZM80.5 67.6875C80.8398 67.6875 81.1657 67.5525 81.406 67.3122C81.6463 67.072 81.7812 66.7461 81.7812 66.4063V64.1641C81.7872 61.266 80.9399 58.4303 79.345 56.0106C77.7501 53.5909 75.4782 51.6943 72.8125 50.5572V65.8041L80.1925 67.6875C80.2946 67.6999 80.3979 67.6999 80.5 67.6875V67.6875ZM38.2188 66.4063C38.2188 66.7461 38.3537 67.072 38.594 67.3122C38.8343 67.5525 39.1602 67.6875 39.5 67.6875C39.6021 67.6999 39.7054 67.6999 39.8075 67.6875L47.1875 65.8041V50.5572C44.5218 51.6943 42.2499 53.5909 40.655 56.0106C39.0601 58.4303 38.2128 61.266 38.2188 64.1641V66.4063ZM60 52.3125C61.267 52.3125 62.5056 51.9368 63.5591 51.2329C64.6126 50.5289 65.4337 49.5284 65.9186 48.3578C66.4035 47.1872 66.5303 45.8992 66.2832 44.6565C66.036 43.4138 65.4258 42.2723 64.5299 41.3764C63.634 40.4804 62.4925 39.8703 61.2498 39.6231C60.0071 39.3759 58.719 39.5028 57.5484 39.9877C56.3778 40.4725 55.3773 41.2936 54.6734 42.3471C53.9695 43.4006 53.5938 44.6392 53.5938 45.9063C53.5938 47.6053 54.2687 49.2348 55.4701 50.4362C56.6715 51.6376 58.301 52.3125 60 52.3125ZM24.125 51.0313V45.9063C24.125 44.8868 24.53 43.9092 25.2508 43.1883C25.9717 42.4675 26.9493 42.0625 27.9688 42.0625H47.1875V49.1734C45.3261 49.8929 43.6177 50.958 42.1522 52.3125H25.4062C25.0664 52.3125 24.7406 52.1775 24.5003 51.9372C24.26 51.697 24.125 51.3711 24.125 51.0313ZM36.9375 48.4688H42.0625V45.9063H36.9375V48.4688ZM29.25 48.4688H34.375V45.9063H29.25V48.4688ZM95.875 45.9063V51.0313C95.875 51.3711 95.74 51.697 95.4997 51.9372C95.2595 52.1775 94.9336 52.3125 94.5938 52.3125H77.8606C76.3839 50.9665 74.6729 49.9025 72.8125 49.1734V42.0625H92.0312C93.0507 42.0625 94.0283 42.4675 94.7492 43.1883C95.47 43.9092 95.875 44.8868 95.875 45.9063ZM90.75 45.9063H76.7331V48.4688H90.75V45.9063ZM56.1562 60H53.5938V62.5625H56.1562V60ZM58.7188 62.5625H61.2812V60H58.7188V62.5625ZM63.8438 62.5625H66.4062V60H63.8438V62.5625Z" fill="#1E277D"/>
</svg>
