<svg width="138" height="138" viewBox="0 0 138 138" fill="none" xmlns="http://www.w3.org/2000/svg">
<g filter="url(#filter0_di_132_136)">
<rect x="9" y="6" width="120" height="120" rx="20" fill="#E8E9F2"/>
<rect x="10.5" y="7.5" width="117" height="117" rx="18.5" stroke="white" stroke-width="3"/>
</g>
<g clip-path="url(#clip0_132_136)">
<path d="M48.3744 23H90.6257C91.7469 23 92.6643 23.9174 92.6643 25.0387V51.8981C92.6643 58.2689 90.0141 64.0281 85.8348 68.2584C81.6556 72.4376 75.8454 75.0369 69.4745 75.0369C63.1037 75.0369 57.3445 72.4376 53.1143 68.2584C48.935 64.0281 46.3357 58.2689 46.3357 51.8981V25.0387C46.3357 23.9174 47.2531 23 48.3744 23ZM70.4939 36.3533V33.0404C70.4939 32.4798 70.0352 32.0211 69.4745 32.0211C68.9139 32.0211 68.4552 32.4798 68.4552 33.0404V36.4042L67.7417 36.6081C66.5694 36.9139 65.4991 37.5255 64.6327 38.3409C63.3585 39.6661 62.645 41.3989 62.645 43.1828C62.645 45.0176 63.3585 46.7504 64.6327 48.0246C65.9578 49.2988 67.6907 50.0633 69.4745 50.0633C70.7487 50.0633 71.9719 50.5729 72.8893 51.4394C73.8067 52.3568 74.3164 53.58 74.3164 54.8541C74.3164 56.1283 73.8067 57.3515 72.8893 58.2179C71.9719 59.1353 70.7487 59.645 69.4745 59.645H63.6643C63.1037 59.645 62.645 60.1037 62.645 60.6643C62.645 61.225 63.1037 61.6837 63.6643 61.6837H68.4552V64.9965C68.4552 65.5571 68.9139 66.0158 69.4745 66.0158C70.0352 66.0158 70.4939 65.5571 70.4939 64.9965V61.6837L71.2584 61.4798C72.4306 61.123 73.5009 60.5114 74.3164 59.696C75.5905 58.3708 76.355 56.6889 76.355 54.8541C76.355 53.0193 75.5905 51.2865 74.3164 50.0123C73.0422 48.7381 71.3093 48.0246 69.4745 48.0246C68.2004 48.0246 66.9772 47.5149 66.1107 46.5975C65.1933 45.6801 64.6837 44.4569 64.6837 43.1828C64.6837 41.9086 65.1933 40.6854 66.1107 39.819C66.9772 38.9016 68.2004 38.3919 69.4745 38.3919H75.3357C75.8963 38.3919 76.355 37.9332 76.355 37.3726C76.355 36.812 75.8963 36.3533 75.3357 36.3533H70.4939Z" fill="#1E277D"/>
<path d="M77.4762 72.1319C77.4762 71.0107 76.5588 70.0933 75.4375 70.0933C70.035 70.0933 68.9647 70.0933 63.5113 70.0933C62.3901 70.0933 61.4727 71.0107 61.4727 72.1319V94.8121C61.4727 95.9333 62.3901 96.8507 63.5113 96.8507H75.4375C76.5588 96.8507 77.4762 95.9333 77.4762 94.8121V72.1319Z" fill="#1E277D"/>
<path d="M90.6256 29.5239H102.552C103.673 29.5239 104.59 30.4413 104.59 31.5626V36.4044C104.59 39.9721 103.112 43.2339 100.768 45.6294C98.3725 47.9738 95.1106 49.4519 91.543 49.4519H90.6256C89.5043 49.4519 88.5869 48.5345 88.5869 47.4132V31.5626C88.5869 30.4413 89.5043 29.5239 90.6256 29.5239ZM100.513 33.6013H92.6642V45.3236C94.6519 45.0687 96.4867 44.1004 97.8628 42.7243C99.4938 41.0933 100.513 38.8508 100.513 36.4044V33.6013Z" fill="#1E277D"/>
<path d="M46.3356 33.6013H38.4868V36.4044C38.4868 38.8508 39.5061 41.0933 41.137 42.7243C42.5131 44.1004 44.2969 45.0687 46.3356 45.3236V33.6013ZM36.4481 29.5239H48.3743C49.4955 29.5239 50.4129 30.4413 50.4129 31.5626V47.4132C50.4129 48.5345 49.4955 49.4519 48.3743 49.4519H47.4569C43.8892 49.4519 40.6274 47.9738 38.2319 45.6294C35.8875 43.2339 34.4094 39.9721 34.4094 36.4044V31.5626C34.4094 30.4413 35.3268 29.5239 36.4481 29.5239Z" fill="#1E277D"/>
<path d="M53.9297 92.7734H85.0194C89.1986 92.7734 93.0211 94.4553 95.7733 97.2075C98.5255 99.9597 100.207 103.782 100.207 107.961C100.207 109.083 99.29 110 98.1688 110H40.7804C39.6591 110 38.7417 109.083 38.7417 107.961C38.7417 103.782 40.4746 99.9597 43.2268 97.2075C45.979 94.4553 49.7505 92.7734 53.9297 92.7734Z" fill="#1E277D"/>
</g>
<defs>
<filter id="filter0_di_132_136" x="0" y="0" width="138" height="138" filterUnits="userSpaceOnUse" color-interpolation-filters="sRGB">
<feFlood flood-opacity="0" result="BackgroundImageFix"/>
<feColorMatrix in="SourceAlpha" type="matrix" values="0 0 0 0 0 0 0 0 0 0 0 0 0 0 0 0 0 0 127 0" result="hardAlpha"/>
<feMorphology radius="1" operator="dilate" in="SourceAlpha" result="effect1_dropShadow_132_136"/>
<feOffset dy="3"/>
<feGaussianBlur stdDeviation="4"/>
<feComposite in2="hardAlpha" operator="out"/>
<feColorMatrix type="matrix" values="0 0 0 0 0 0 0 0 0 0 0 0 0 0 0 0 0 0 0.15 0"/>
<feBlend mode="normal" in2="BackgroundImageFix" result="effect1_dropShadow_132_136"/>
<feBlend mode="normal" in="SourceGraphic" in2="effect1_dropShadow_132_136" result="shape"/>
<feColorMatrix in="SourceAlpha" type="matrix" values="0 0 0 0 0 0 0 0 0 0 0 0 0 0 0 0 0 0 127 0" result="hardAlpha"/>
<feMorphology radius="1" operator="erode" in="SourceAlpha" result="effect2_innerShadow_132_136"/>
<feOffset dy="1"/>
<feGaussianBlur stdDeviation="3"/>
<feComposite in2="hardAlpha" operator="arithmetic" k2="-1" k3="1"/>
<feColorMatrix type="matrix" values="0 0 0 0 0 0 0 0 0 0 0 0 0 0 0 0 0 0 0.45 0"/>
<feBlend mode="normal" in2="shape" result="effect2_innerShadow_132_136"/>
</filter>
<clipPath id="clip0_132_136">
<rect width="87" height="87" fill="white" transform="translate(26 23)"/>
</clipPath>
</defs>
</svg>
