<svg width="120" height="120" viewBox="0 0 120 120" fill="none" xmlns="http://www.w3.org/2000/svg">
<rect x="1.5" y="1.5" width="117" height="117" rx="18.5" fill="#1E277D" fill-opacity="0.1" stroke="#1E277D" stroke-width="3" stroke-dasharray="5 5"/>
<g clip-path="url(#clip0_126_65)">
<path d="M84.9901 61.1483C84.5065 60.5035 83.5919 60.3729 82.9471 60.8564C82.6374 61.0888 82.4325 61.4346 82.378 61.8181L81.5681 67.4946C81.5486 67.5676 81.523 67.6387 81.4922 67.7077C82.9805 65.7315 84.1816 63.5544 85.0601 61.2417L84.9901 61.1483Z" fill="#1E277D"/>
<path d="M80.1219 68.7467C80.0531 68.7467 79.9844 68.7423 79.9161 68.7336L71.2481 67.4946C70.4502 67.3803 69.8963 66.641 70.0106 65.8431C70.0106 65.8429 70.0106 65.8429 70.0106 65.8427L70.8205 60.1662C70.9334 59.3682 70.3782 58.6298 69.5802 58.5169C69.1984 58.4629 68.8106 58.5621 68.5017 58.793L63.9138 62.2325C63.269 62.7161 62.3544 62.5855 61.8708 61.9407L56.6175 54.9362C56.1339 54.2914 56.2645 53.3768 56.9093 52.8932L61.4958 49.4537C62.1406 48.9701 62.2712 48.0555 61.7877 47.4107C61.5553 47.101 61.2094 46.8962 60.826 46.8416L55.1494 46.0303C54.3516 45.9168 53.7967 45.1779 53.9103 44.38C53.9103 44.3795 53.9105 44.3789 53.9105 44.3784L55.1494 35.7118C55.2629 34.9139 56.0018 34.359 56.7997 34.4727C56.8002 34.4727 56.8008 34.4729 56.8013 34.4729L62.4779 35.2842C63.0618 35.3689 63.6387 35.0912 63.9372 34.5823C64.2471 34.0765 64.2122 33.4319 63.8496 32.9625L60.413 28.3775C59.9295 27.7327 60.0601 26.8181 60.7049 26.3345L61.5323 25.7143C60.1919 25.6496 58.8485 25.6855 57.5135 25.8223C43.1003 27.468 32.7504 40.4863 34.3961 54.8995C35.2926 62.7513 39.6766 69.782 46.3326 74.0424C48.7626 75.5491 50.2551 78.1922 50.2901 81.0512V86.9481C50.2901 89.366 52.2501 91.3259 54.6679 91.3259H66.342C68.7599 91.3259 70.7198 89.366 70.7198 86.9481V81.1724C70.7569 78.2462 72.28 75.5399 74.762 73.9898C77.0625 72.4974 79.117 70.6561 80.8515 68.5322C80.6316 68.667 80.3798 68.741 80.1219 68.7467ZM61.9642 86.9481H59.0457V82.5703H61.9642V86.9481ZM59.0457 79.6518C59.0448 75.7935 56.6656 72.335 53.0627 70.9546C42.5543 66.8456 37.3666 54.9962 41.4756 44.4878C43.0665 40.4188 45.9201 36.9671 49.6174 34.6392L51.1656 37.1083C42.9801 42.259 40.5199 53.07 45.6706 61.2555C47.6661 64.4269 50.6264 66.8746 54.1163 68.2389C58.8458 70.0478 61.9679 74.5881 61.9642 79.6518H59.0457Z" fill="#1E277D"/>
<path d="M54.668 98.6223V100.082C54.668 101.694 55.9746 103 57.5865 103H63.4236C65.0355 103 66.3421 101.694 66.3421 100.082V98.6223H54.668Z" fill="#1E277D"/>
<path d="M45.5446 75.274C44.68 74.7135 43.8473 74.105 43.0507 73.4514C40.8478 77.7398 35.5856 79.4304 31.2972 77.2276C28.3783 75.7282 26.5469 72.7185 26.5566 69.4369C26.5633 65.025 29.8491 61.3061 34.2265 60.7558C33.691 59.1451 33.3041 57.4886 33.0708 55.8074L32.8154 57.0215C32.4838 58.5988 30.936 59.6086 29.3588 59.277C28.981 59.1976 28.6227 59.044 28.3048 58.8251L25.2695 56.7413L22.6107 59.3943L24.7004 62.4325C25.615 63.7597 25.2805 65.5772 23.9533 66.4918C23.635 66.711 23.2763 66.865 22.8982 66.9445L19.2603 67.7106V71.1778L22.8982 71.944C24.4755 72.2761 25.4849 73.824 25.1528 75.4013C25.0731 75.78 24.9187 76.139 24.6989 76.4575L22.6107 79.4796L25.2695 82.1326L28.3019 80.0429C29.6291 79.1283 31.4466 79.4628 32.3612 80.79C32.5805 81.1083 32.7344 81.467 32.8139 81.8451L33.5786 85.4889H37.0473L37.8119 81.8509C38.1439 80.2736 39.6917 79.264 41.2689 79.596C41.6471 79.6755 42.0057 79.8295 42.324 80.0487L45.3549 82.1326L48.485 79.0024C47.9602 77.46 46.9223 76.1439 45.5446 75.274Z" fill="#1E277D"/>
<path d="M66.3421 92.7852H54.668V95.7037H66.3421V92.7852Z" fill="#1E277D"/>
<path d="M96.9414 43.1569C94.548 42.8147 92.8852 40.5968 93.2274 38.2034C93.3917 37.0541 94.0059 36.0171 94.9349 35.3206L98.354 32.7553L94.8517 28.0856L91.4327 30.6495C89.4988 32.1008 86.7546 31.7093 85.3036 29.7756C84.6077 28.8482 84.308 27.6825 84.4705 26.5344L85.0746 22.3025L79.2974 21.478L78.6932 25.7099C78.3509 28.1033 76.1331 29.7661 73.7398 29.4239C72.5904 29.2596 71.5534 28.6454 70.857 27.7164L68.2916 24.2915L63.6219 27.7937L66.1859 31.2128C67.6367 33.1469 67.2451 35.8909 65.311 37.3419C64.3817 38.0391 63.2135 38.3382 62.0634 38.1735L57.8316 37.5694L57.0027 43.3481L61.2346 43.9522C63.6279 44.2946 65.2908 46.5123 64.9486 48.9057C64.7842 50.0551 64.1701 51.092 63.2411 51.7885L59.8235 54.3539L63.3257 59.0235L66.7448 56.4596C68.6788 55.0087 71.4228 55.4004 72.8739 57.3344C73.571 58.2638 73.8702 59.4321 73.7055 60.582L73.1013 64.8139L78.8917 65.6428L79.4958 61.4109C79.8382 59.0175 82.0559 57.3547 84.4493 57.6969C85.5987 57.8612 86.6357 58.4754 87.3321 59.4044L89.8975 62.822L94.5672 59.3198L91.9945 55.8949C90.5441 53.9604 90.9365 51.2165 92.8709 49.7661C93.7983 49.0708 94.9635 48.7716 96.1111 48.9342L100.343 49.5383L101.167 43.7611L96.9414 43.1569ZM79.0902 52.3109C74.2545 52.3109 70.3346 48.3909 70.3346 43.5553C70.3346 38.7196 74.2545 34.7997 79.0902 34.7997C83.9258 34.7997 87.8458 38.7196 87.8458 43.5553C87.8401 48.3886 83.9234 52.3052 79.0902 52.3109Z" fill="#1E277D"/>
<path d="M98.4458 72.3555H88.231V75.274H98.4458V72.3555Z" fill="#1E277D"/>
<path d="M87.706 79.9889L85.8379 82.2312L94.5941 89.5263L96.4623 87.284L87.706 79.9889Z" fill="#1E277D"/>
<path d="M82.3941 84.0295H79.4756V94.2444H82.3941V84.0295Z" fill="#1E277D"/>
<path d="M29.5051 40.2944L17.8318 43.2124L18.5392 46.0423L30.2125 43.1242L29.5051 40.2944Z" fill="#1E277D"/>
<path d="M21.9513 25.9325L20.2559 28.3062L30.4699 35.6017L32.1653 33.2281L21.9513 25.9325Z" fill="#1E277D"/>
<path d="M35.5865 17.999L32.759 18.7219L35.7436 30.3952L38.5711 29.6722L35.5865 17.999Z" fill="#1E277D"/>
</g>
<defs>
<clipPath id="clip0_126_65">
<rect width="85" height="85" fill="white" transform="translate(17 18)"/>
</clipPath>
</defs>
</svg>
